<svg width="17" height="17" viewBox="0 0 17 17" fill="none" xmlns="http://www.w3.org/2000/svg">
  <g clip-path="url(#clip0_8013_335)">
    <path fill-rule="evenodd" clip-rule="evenodd" d="M9.24781 3.76001C9.88433 3.12349 10.7476 2.7659 11.6478 2.7659C12.548 2.7659 13.4113 3.12349 14.0478 3.76001C14.6843 4.39653 15.0419 5.25984 15.0419 6.16001C15.0419 7.06019 14.6843 7.92349 14.0478 8.56001L13.1745 9.43334L8.37448 14.2333L3.57448 9.43334L2.70114 8.56001C2.06462 7.92349 1.70703 7.06019 1.70703 6.16001C1.70703 5.25984 2.06462 4.39653 2.70114 3.76001C3.33766 3.12349 4.20097 2.7659 5.10114 2.7659C6.00132 2.7659 6.86462 3.12349 7.50114 3.76001L8.37448 4.63334L9.24781 3.76001Z" stroke="#E6704B" stroke-width="2" stroke-linecap="round" stroke-linejoin="round" />
  </g>
  <defs>
    <clipPath id="clip0_8013_335">
      <rect width="16" height="16" fill="white" transform="translate(0.375 0.5)" />
    </clipPath>
  </defs>
</svg>