<svg width="570" height="436" viewBox="0 0 570 436" fill="none" xmlns="http://www.w3.org/2000/svg">
<rect x="0.5" width="569" height="436" rx="12" fill="#F9F9F9"/>
<g clip-path="url(#clip0_8013_25206)">
<rect x="16.5" y="16" width="58" height="26" rx="12" fill="#F4F8EC"/>
<path d="M32.44 28.008V29.424H27.352V28.008H32.44ZM37.0155 26.556C37.0555 25.756 37.3355 25.14 37.8555 24.708C38.3835 24.268 39.0755 24.048 39.9315 24.048C40.5155 24.048 41.0155 24.152 41.4315 24.36C41.8475 24.56 42.1595 24.836 42.3675 25.188C42.5835 25.532 42.6915 25.924 42.6915 26.364C42.6915 26.868 42.5595 27.296 42.2955 27.648C42.0395 27.992 41.7315 28.224 41.3715 28.344V28.392C41.8355 28.536 42.1955 28.792 42.4515 29.16C42.7155 29.528 42.8475 30 42.8475 30.576C42.8475 31.056 42.7355 31.484 42.5115 31.86C42.2955 32.236 41.9715 32.532 41.5395 32.748C41.1155 32.956 40.6035 33.06 40.0035 33.06C39.0995 33.06 38.3635 32.832 37.7955 32.376C37.2275 31.92 36.9275 31.248 36.8955 30.36H38.5275C38.5435 30.752 38.6755 31.068 38.9235 31.308C39.1795 31.54 39.5275 31.656 39.9675 31.656C40.3755 31.656 40.6875 31.544 40.9035 31.32C41.1275 31.088 41.2395 30.792 41.2395 30.432C41.2395 29.952 41.0875 29.608 40.7835 29.4C40.4795 29.192 40.0075 29.088 39.3675 29.088H39.0195V27.708H39.3675C40.5035 27.708 41.0715 27.328 41.0715 26.568C41.0715 26.224 40.9675 25.956 40.7595 25.764C40.5595 25.572 40.2675 25.476 39.8835 25.476C39.5075 25.476 39.2155 25.58 39.0075 25.788C38.8075 25.988 38.6915 26.244 38.6595 26.556H37.0155ZM48.7111 26.436C48.6311 26.1 48.4911 25.848 48.2911 25.68C48.0991 25.512 47.8191 25.428 47.4511 25.428C46.8991 25.428 46.4911 25.652 46.2271 26.1C45.9711 26.54 45.8391 27.26 45.8311 28.26C46.0231 27.94 46.3031 27.692 46.6711 27.516C47.0391 27.332 47.4391 27.24 47.8711 27.24C48.3911 27.24 48.8511 27.352 49.2511 27.576C49.6511 27.8 49.9631 28.128 50.1871 28.56C50.4111 28.984 50.5231 29.496 50.5231 30.096C50.5231 30.664 50.4071 31.172 50.1751 31.62C49.9511 32.06 49.6191 32.404 49.1791 32.652C48.7391 32.9 48.2151 33.024 47.6071 33.024C46.7751 33.024 46.1191 32.84 45.6391 32.472C45.1671 32.104 44.8351 31.592 44.6431 30.936C44.4591 30.272 44.3671 29.456 44.3671 28.488C44.3671 27.024 44.6191 25.92 45.1231 25.176C45.6271 24.424 46.4231 24.048 47.5111 24.048C48.3511 24.048 49.0031 24.276 49.4671 24.732C49.9311 25.188 50.1991 25.756 50.2711 26.436H48.7111ZM47.4871 28.62C47.0631 28.62 46.7071 28.744 46.4191 28.992C46.1311 29.24 45.9871 29.6 45.9871 30.072C45.9871 30.544 46.1191 30.916 46.3831 31.188C46.6551 31.46 47.0351 31.596 47.5231 31.596C47.9551 31.596 48.2951 31.464 48.5431 31.2C48.7991 30.936 48.9271 30.58 48.9271 30.132C48.9271 29.668 48.8031 29.3 48.5551 29.028C48.3151 28.756 47.9591 28.62 47.4871 28.62ZM54.5182 26.4C54.5182 25.792 54.6942 25.316 55.0462 24.972C55.4062 24.628 55.8662 24.456 56.4262 24.456C56.9862 24.456 57.4422 24.628 57.7942 24.972C58.1542 25.316 58.3342 25.792 58.3342 26.4C58.3342 27.016 58.1542 27.496 57.7942 27.84C57.4422 28.184 56.9862 28.356 56.4262 28.356C55.8662 28.356 55.4062 28.184 55.0462 27.84C54.6942 27.496 54.5182 27.016 54.5182 26.4ZM62.2222 24.6L57.5062 33H55.8742L60.5782 24.6H62.2222ZM56.4142 25.464C55.9742 25.464 55.7542 25.776 55.7542 26.4C55.7542 27.032 55.9742 27.348 56.4142 27.348C56.6302 27.348 56.7982 27.272 56.9182 27.12C57.0382 26.96 57.0982 26.72 57.0982 26.4C57.0982 25.776 56.8702 25.464 56.4142 25.464ZM59.7862 31.188C59.7862 30.572 59.9622 30.096 60.3142 29.76C60.6742 29.416 61.1342 29.244 61.6942 29.244C62.2542 29.244 62.7062 29.416 63.0502 29.76C63.4022 30.096 63.5782 30.572 63.5782 31.188C63.5782 31.804 63.4022 32.284 63.0502 32.628C62.7062 32.972 62.2542 33.144 61.6942 33.144C61.1262 33.144 60.6662 32.972 60.3142 32.628C59.9622 32.284 59.7862 31.804 59.7862 31.188ZM61.6822 30.252C61.2262 30.252 60.9982 30.564 60.9982 31.188C60.9982 31.82 61.2262 32.136 61.6822 32.136C62.1302 32.136 62.3542 31.82 62.3542 31.188C62.3542 30.564 62.1302 30.252 61.6822 30.252Z" fill="#6A983C"/>
<rect x="86.5" y="16" width="103" height="26" rx="12" fill="#F4F8EC"/>
<path d="M102.5 24.624V25.98H99.008V28.128H101.684V29.46H99.008V33H97.328V24.624H102.5ZM105.371 27.384C105.587 27.032 105.867 26.756 106.211 26.556C106.563 26.356 106.963 26.256 107.411 26.256V28.02H106.967C106.439 28.02 106.039 28.144 105.767 28.392C105.503 28.64 105.371 29.072 105.371 29.688V33H103.691V26.352H105.371V27.384ZM114.723 29.532C114.723 29.772 114.707 29.988 114.675 30.18H109.815C109.855 30.66 110.023 31.036 110.319 31.308C110.615 31.58 110.979 31.716 111.411 31.716C112.035 31.716 112.479 31.448 112.743 30.912H114.555C114.363 31.552 113.995 32.08 113.451 32.496C112.907 32.904 112.239 33.108 111.447 33.108C110.807 33.108 110.231 32.968 109.719 32.688C109.215 32.4 108.819 31.996 108.531 31.476C108.251 30.956 108.111 30.356 108.111 29.676C108.111 28.988 108.251 28.384 108.531 27.864C108.811 27.344 109.203 26.944 109.707 26.664C110.211 26.384 110.791 26.244 111.447 26.244C112.079 26.244 112.643 26.38 113.139 26.652C113.643 26.924 114.031 27.312 114.303 27.816C114.583 28.312 114.723 28.884 114.723 29.532ZM112.983 29.052C112.975 28.62 112.819 28.276 112.515 28.02C112.211 27.756 111.839 27.624 111.399 27.624C110.983 27.624 110.631 27.752 110.343 28.008C110.063 28.256 109.891 28.604 109.827 29.052H112.983ZM122.129 29.532C122.129 29.772 122.113 29.988 122.081 30.18H117.221C117.261 30.66 117.429 31.036 117.725 31.308C118.021 31.58 118.385 31.716 118.817 31.716C119.441 31.716 119.885 31.448 120.149 30.912H121.961C121.769 31.552 121.401 32.08 120.857 32.496C120.313 32.904 119.645 33.108 118.853 33.108C118.213 33.108 117.637 32.968 117.125 32.688C116.621 32.4 116.225 31.996 115.937 31.476C115.657 30.956 115.517 30.356 115.517 29.676C115.517 28.988 115.657 28.384 115.937 27.864C116.217 27.344 116.609 26.944 117.113 26.664C117.617 26.384 118.197 26.244 118.853 26.244C119.485 26.244 120.049 26.38 120.545 26.652C121.049 26.924 121.437 27.312 121.709 27.816C121.989 28.312 122.129 28.884 122.129 29.532ZM120.389 29.052C120.381 28.62 120.225 28.276 119.921 28.02C119.617 27.756 119.245 27.624 118.805 27.624C118.389 27.624 118.037 27.752 117.749 28.008C117.469 28.256 117.297 28.604 117.233 29.052H120.389ZM128.759 33.108C128.215 33.108 127.727 33.012 127.295 32.82C126.863 32.62 126.519 32.352 126.263 32.016C126.015 31.68 125.879 31.308 125.855 30.9H127.547C127.579 31.156 127.703 31.368 127.919 31.536C128.143 31.704 128.419 31.788 128.747 31.788C129.067 31.788 129.315 31.724 129.491 31.596C129.675 31.468 129.767 31.304 129.767 31.104C129.767 30.888 129.655 30.728 129.431 30.624C129.215 30.512 128.867 30.392 128.387 30.264C127.891 30.144 127.483 30.02 127.163 29.892C126.851 29.764 126.579 29.568 126.347 29.304C126.123 29.04 126.011 28.684 126.011 28.236C126.011 27.868 126.115 27.532 126.323 27.228C126.539 26.924 126.843 26.684 127.235 26.508C127.635 26.332 128.103 26.244 128.639 26.244C129.431 26.244 130.063 26.444 130.535 26.844C131.007 27.236 131.267 27.768 131.315 28.44H129.707C129.683 28.176 129.571 27.968 129.371 27.816C129.179 27.656 128.919 27.576 128.591 27.576C128.287 27.576 128.051 27.632 127.883 27.744C127.723 27.856 127.643 28.012 127.643 28.212C127.643 28.436 127.755 28.608 127.979 28.728C128.203 28.84 128.551 28.956 129.023 29.076C129.503 29.196 129.899 29.32 130.211 29.448C130.523 29.576 130.791 29.776 131.015 30.048C131.247 30.312 131.367 30.664 131.375 31.104C131.375 31.488 131.267 31.832 131.051 32.136C130.843 32.44 130.539 32.68 130.139 32.856C129.747 33.024 129.287 33.108 128.759 33.108ZM136.498 26.256C137.002 26.256 137.45 26.368 137.842 26.592C138.234 26.808 138.538 27.132 138.754 27.564C138.978 27.988 139.09 28.5 139.09 29.1V33H137.41V29.328C137.41 28.8 137.278 28.396 137.014 28.116C136.75 27.828 136.39 27.684 135.934 27.684C135.47 27.684 135.102 27.828 134.83 28.116C134.566 28.396 134.434 28.8 134.434 29.328V33H132.754V24.12H134.434V27.18C134.65 26.892 134.938 26.668 135.298 26.508C135.658 26.34 136.058 26.256 136.498 26.256ZM141.539 25.56C141.243 25.56 140.995 25.468 140.795 25.284C140.603 25.092 140.507 24.856 140.507 24.576C140.507 24.296 140.603 24.064 140.795 23.88C140.995 23.688 141.243 23.592 141.539 23.592C141.835 23.592 142.079 23.688 142.271 23.88C142.471 24.064 142.571 24.296 142.571 24.576C142.571 24.856 142.471 25.092 142.271 25.284C142.079 25.468 141.835 25.56 141.539 25.56ZM142.367 26.352V33H140.687V26.352H142.367ZM145.707 27.312C145.923 27.008 146.219 26.756 146.595 26.556C146.979 26.348 147.415 26.244 147.903 26.244C148.471 26.244 148.983 26.384 149.439 26.664C149.903 26.944 150.267 27.344 150.531 27.864C150.803 28.376 150.939 28.972 150.939 29.652C150.939 30.332 150.803 30.936 150.531 31.464C150.267 31.984 149.903 32.388 149.439 32.676C148.983 32.964 148.471 33.108 147.903 33.108C147.415 33.108 146.983 33.008 146.607 32.808C146.239 32.608 145.939 32.356 145.707 32.052V36.168H144.027V26.352H145.707V27.312ZM149.223 29.652C149.223 29.252 149.139 28.908 148.971 28.62C148.811 28.324 148.595 28.1 148.323 27.948C148.059 27.796 147.771 27.72 147.459 27.72C147.155 27.72 146.867 27.8 146.595 27.96C146.331 28.112 146.115 28.336 145.947 28.632C145.787 28.928 145.707 29.276 145.707 29.676C145.707 30.076 145.787 30.424 145.947 30.72C146.115 31.016 146.331 31.244 146.595 31.404C146.867 31.556 147.155 31.632 147.459 31.632C147.771 31.632 148.059 31.552 148.323 31.392C148.595 31.232 148.811 31.004 148.971 30.708C149.139 30.412 149.223 30.06 149.223 29.652ZM153.84 27.312C154.056 27.008 154.352 26.756 154.728 26.556C155.112 26.348 155.548 26.244 156.036 26.244C156.604 26.244 157.116 26.384 157.572 26.664C158.036 26.944 158.4 27.344 158.664 27.864C158.936 28.376 159.072 28.972 159.072 29.652C159.072 30.332 158.936 30.936 158.664 31.464C158.4 31.984 158.036 32.388 157.572 32.676C157.116 32.964 156.604 33.108 156.036 33.108C155.548 33.108 155.116 33.008 154.74 32.808C154.372 32.608 154.072 32.356 153.84 32.052V36.168H152.16V26.352H153.84V27.312ZM157.356 29.652C157.356 29.252 157.272 28.908 157.104 28.62C156.944 28.324 156.728 28.1 156.456 27.948C156.192 27.796 155.904 27.72 155.592 27.72C155.288 27.72 155 27.8 154.728 27.96C154.464 28.112 154.248 28.336 154.08 28.632C153.92 28.928 153.84 29.276 153.84 29.676C153.84 30.076 153.92 30.424 154.08 30.72C154.248 31.016 154.464 31.244 154.728 31.404C155 31.556 155.288 31.632 155.592 31.632C155.904 31.632 156.192 31.552 156.456 31.392C156.728 31.232 156.944 31.004 157.104 30.708C157.272 30.412 157.356 30.06 157.356 29.652ZM161.145 25.56C160.849 25.56 160.601 25.468 160.401 25.284C160.209 25.092 160.113 24.856 160.113 24.576C160.113 24.296 160.209 24.064 160.401 23.88C160.601 23.688 160.849 23.592 161.145 23.592C161.441 23.592 161.685 23.688 161.877 23.88C162.077 24.064 162.177 24.296 162.177 24.576C162.177 24.856 162.077 25.092 161.877 25.284C161.685 25.468 161.441 25.56 161.145 25.56ZM161.973 26.352V33H160.293V26.352H161.973ZM167.317 26.256C168.109 26.256 168.749 26.508 169.237 27.012C169.725 27.508 169.969 28.204 169.969 29.1V33H168.289V29.328C168.289 28.8 168.157 28.396 167.893 28.116C167.629 27.828 167.269 27.684 166.813 27.684C166.349 27.684 165.981 27.828 165.709 28.116C165.445 28.396 165.313 28.8 165.313 29.328V33H163.633V26.352H165.313V27.18C165.537 26.892 165.821 26.668 166.165 26.508C166.517 26.34 166.901 26.256 167.317 26.256ZM174.17 26.244C174.666 26.244 175.102 26.344 175.478 26.544C175.854 26.736 176.15 26.988 176.366 27.3V26.352H178.058V33.048C178.058 33.664 177.934 34.212 177.686 34.692C177.438 35.18 177.066 35.564 176.57 35.844C176.074 36.132 175.474 36.276 174.77 36.276C173.826 36.276 173.05 36.056 172.442 35.616C171.842 35.176 171.502 34.576 171.422 33.816H173.09C173.178 34.12 173.366 34.36 173.654 34.536C173.95 34.72 174.306 34.812 174.722 34.812C175.21 34.812 175.606 34.664 175.91 34.368C176.214 34.08 176.366 33.64 176.366 33.048V32.016C176.15 32.328 175.85 32.588 175.466 32.796C175.09 33.004 174.658 33.108 174.17 33.108C173.61 33.108 173.098 32.964 172.634 32.676C172.17 32.388 171.802 31.984 171.53 31.464C171.266 30.936 171.134 30.332 171.134 29.652C171.134 28.98 171.266 28.384 171.53 27.864C171.802 27.344 172.166 26.944 172.622 26.664C173.086 26.384 173.602 26.244 174.17 26.244ZM176.366 29.676C176.366 29.268 176.286 28.92 176.126 28.632C175.966 28.336 175.75 28.112 175.478 27.96C175.206 27.8 174.914 27.72 174.602 27.72C174.29 27.72 174.002 27.796 173.738 27.948C173.474 28.1 173.258 28.324 173.09 28.62C172.93 28.908 172.85 29.252 172.85 29.652C172.85 30.052 172.93 30.404 173.09 30.708C173.258 31.004 173.474 31.232 173.738 31.392C174.01 31.552 174.298 31.632 174.602 31.632C174.914 31.632 175.206 31.556 175.478 31.404C175.75 31.244 175.966 31.02 176.126 30.732C176.286 30.436 176.366 30.084 176.366 29.676Z" fill="#6A983C"/>
</g>
<defs>
<clipPath id="clip0_8013_25206">
<rect width="173" height="26" fill="white" transform="translate(16.5 16)"/>
</clipPath>
</defs>
</svg>
