<svg width="17" height="17" viewBox="0 0 17 17" fill="none" xmlns="http://www.w3.org/2000/svg">
  <g clip-path="url(#clip0_8013_340)">
    <path d="M6.70898 1.83331H4.04232C3.30594 1.83331 2.70898 2.43027 2.70898 3.16665V5.83331C2.70898 6.56969 3.30594 7.16665 4.04232 7.16665H6.70898C7.44536 7.16665 8.04232 6.56969 8.04232 5.83331V3.16665C8.04232 2.43027 7.44536 1.83331 6.70898 1.83331Z" stroke="#E6704B" stroke-width="2" stroke-linecap="round" stroke-linejoin="round" />
    <path d="M6.70898 9.83331H4.04232C3.30594 9.83331 2.70898 10.4303 2.70898 11.1666V13.8333C2.70898 14.5697 3.30594 15.1666 4.04232 15.1666H6.70898C7.44536 15.1666 8.04232 14.5697 8.04232 13.8333V11.1666C8.04232 10.4303 7.44536 9.83331 6.70898 9.83331Z" stroke="#E6704B" stroke-width="2" stroke-linecap="round" stroke-linejoin="round" />
    <path d="M14.043 11.1666H10.043" stroke="#E6704B" stroke-width="2" stroke-linecap="round" stroke-linejoin="round" />
    <path d="M12.7096 13.8333H10.043" stroke="#E6704B" stroke-width="2" stroke-linecap="round" stroke-linejoin="round" />
    <path d="M12.7096 5.83331H10.043" stroke="#E6704B" stroke-width="2" stroke-linecap="round" stroke-linejoin="round" />
    <path d="M14.043 3.16663H10.043" stroke="#E6704B" stroke-width="2" stroke-linecap="round" stroke-linejoin="round" />
  </g>
  <defs>
    <clipPath id="clip0_8013_340">
      <rect width="16" height="16" fill="white" transform="translate(0.375 0.5)" />
    </clipPath>
  </defs>
</svg>