<svg width="92" height="33" viewBox="0 0 92 33" fill="none" xmlns="http://www.w3.org/2000/svg">
<rect x="0.5" y="1" width="91" height="31" rx="11.5" fill="#F9F9F9"/>
<rect x="0.5" y="1" width="91" height="31" rx="11.5" stroke="#D1D1D1"/>
<mask id="path-2-inside-1_8007_26196" fill="white">
<path d="M10.9307 22H9.82324V14.918C9.82324 14.6491 9.82324 14.4189 9.82324 14.2275C9.8278 14.0316 9.83236 13.8538 9.83691 13.6943C9.84603 13.5303 9.85742 13.3639 9.87109 13.1953C9.72982 13.3411 9.59766 13.4665 9.47461 13.5713C9.35156 13.6715 9.19889 13.7969 9.0166 13.9473L7.875 14.8633L7.28027 14.0908L9.9873 12.0059H10.9307V22ZM18.7441 14.3711C19.6784 14.3711 20.4235 14.6924 20.9795 15.335C21.5355 15.9775 21.8135 16.9437 21.8135 18.2334C21.8135 19.0856 21.6859 19.8011 21.4307 20.3799C21.1755 20.9587 20.8154 21.3962 20.3506 21.6924C19.8903 21.9886 19.3457 22.1367 18.7168 22.1367C18.3203 22.1367 17.9717 22.0843 17.6709 21.9795C17.3701 21.8747 17.1126 21.7334 16.8984 21.5557C16.6842 21.3779 16.5065 21.1842 16.3652 20.9746H16.2832C16.2969 21.1523 16.3128 21.3665 16.3311 21.6172C16.3538 21.8678 16.3652 22.0866 16.3652 22.2734V25.3496H15.2236V14.5078H16.1602L16.3105 15.6152H16.3652C16.5111 15.3874 16.6888 15.18 16.8984 14.9932C17.1081 14.8018 17.3633 14.6514 17.6641 14.542C17.9694 14.4281 18.3294 14.3711 18.7441 14.3711ZM18.5459 15.3281C18.0264 15.3281 17.6071 15.4284 17.2881 15.6289C16.9736 15.8294 16.7435 16.1302 16.5977 16.5312C16.4518 16.9277 16.3743 17.4268 16.3652 18.0283V18.2471C16.3652 18.8805 16.4336 19.416 16.5703 19.8535C16.7116 20.291 16.9417 20.6237 17.2607 20.8516C17.5843 21.0794 18.0173 21.1934 18.5596 21.1934C19.0244 21.1934 19.4118 21.068 19.7217 20.8174C20.0316 20.5667 20.2617 20.2181 20.4121 19.7715C20.5671 19.3203 20.6445 18.8031 20.6445 18.2197C20.6445 17.3356 20.4714 16.6338 20.125 16.1143C19.7832 15.5902 19.2568 15.3281 18.5459 15.3281ZM26.7969 22.1367C26.1224 22.1367 25.5277 21.9977 25.0127 21.7197C24.4977 21.4417 24.0967 21.0179 23.8096 20.4482C23.5225 19.8786 23.3789 19.1608 23.3789 18.2949C23.3789 17.388 23.5293 16.6475 23.8301 16.0732C24.1354 15.4945 24.5547 15.0661 25.0879 14.7881C25.6211 14.5101 26.2272 14.3711 26.9062 14.3711C27.2799 14.3711 27.64 14.4098 27.9863 14.4873C28.3372 14.5602 28.6243 14.6536 28.8477 14.7676L28.5059 15.7178C28.278 15.6266 28.0137 15.5446 27.7129 15.4717C27.4167 15.3988 27.1387 15.3623 26.8789 15.3623C26.3594 15.3623 25.9264 15.474 25.5801 15.6973C25.2383 15.9206 24.9808 16.2487 24.8076 16.6816C24.639 17.1146 24.5547 17.6478 24.5547 18.2812C24.5547 18.8874 24.6367 19.4046 24.8008 19.833C24.9694 20.2614 25.2178 20.5895 25.5459 20.8174C25.8786 21.0407 26.2933 21.1523 26.79 21.1523C27.1865 21.1523 27.5443 21.1113 27.8633 21.0293C28.1823 20.9427 28.4717 20.8424 28.7314 20.7285V21.7402C28.4808 21.8678 28.2005 21.9658 27.8906 22.0342C27.5853 22.1025 27.2207 22.1367 26.7969 22.1367ZM35.3555 19.9492C35.3555 20.4277 35.2347 20.8311 34.9932 21.1592C34.7562 21.4827 34.4144 21.7266 33.9678 21.8906C33.5257 22.0547 32.9971 22.1367 32.3818 22.1367C31.8577 22.1367 31.4043 22.0957 31.0215 22.0137C30.6387 21.9316 30.3037 21.8154 30.0166 21.665V20.6191C30.3219 20.7695 30.6865 20.9062 31.1104 21.0293C31.5342 21.1523 31.9671 21.2139 32.4092 21.2139C33.0563 21.2139 33.5257 21.109 33.8174 20.8994C34.109 20.6898 34.2549 20.4049 34.2549 20.0449C34.2549 19.8398 34.1956 19.6598 34.0771 19.5049C33.9632 19.3454 33.7695 19.1927 33.4961 19.0469C33.2227 18.8965 32.8444 18.7324 32.3613 18.5547C31.8828 18.3724 31.4681 18.1924 31.1172 18.0146C30.7708 17.8324 30.502 17.6113 30.3105 17.3516C30.1237 17.0918 30.0303 16.7546 30.0303 16.3398C30.0303 15.7064 30.2855 15.221 30.7959 14.8838C31.3109 14.542 31.9854 14.3711 32.8193 14.3711C33.2705 14.3711 33.6921 14.4167 34.084 14.5078C34.4805 14.5944 34.8496 14.7129 35.1914 14.8633L34.8086 15.7725C34.4987 15.6403 34.1683 15.5286 33.8174 15.4375C33.4665 15.3464 33.1087 15.3008 32.7441 15.3008C32.2201 15.3008 31.8167 15.3874 31.5342 15.5605C31.2562 15.7337 31.1172 15.9707 31.1172 16.2715C31.1172 16.5039 31.181 16.6953 31.3086 16.8457C31.4408 16.9961 31.6504 17.1374 31.9375 17.2695C32.2246 17.4017 32.6029 17.5566 33.0723 17.7344C33.5417 17.9076 33.9473 18.0876 34.2891 18.2744C34.6309 18.4567 34.8929 18.68 35.0752 18.9443C35.262 19.2041 35.3555 19.5391 35.3555 19.9492Z"/>
</mask>
<path d="M10.9307 22H9.82324V14.918C9.82324 14.6491 9.82324 14.4189 9.82324 14.2275C9.8278 14.0316 9.83236 13.8538 9.83691 13.6943C9.84603 13.5303 9.85742 13.3639 9.87109 13.1953C9.72982 13.3411 9.59766 13.4665 9.47461 13.5713C9.35156 13.6715 9.19889 13.7969 9.0166 13.9473L7.875 14.8633L7.28027 14.0908L9.9873 12.0059H10.9307V22ZM18.7441 14.3711C19.6784 14.3711 20.4235 14.6924 20.9795 15.335C21.5355 15.9775 21.8135 16.9437 21.8135 18.2334C21.8135 19.0856 21.6859 19.8011 21.4307 20.3799C21.1755 20.9587 20.8154 21.3962 20.3506 21.6924C19.8903 21.9886 19.3457 22.1367 18.7168 22.1367C18.3203 22.1367 17.9717 22.0843 17.6709 21.9795C17.3701 21.8747 17.1126 21.7334 16.8984 21.5557C16.6842 21.3779 16.5065 21.1842 16.3652 20.9746H16.2832C16.2969 21.1523 16.3128 21.3665 16.3311 21.6172C16.3538 21.8678 16.3652 22.0866 16.3652 22.2734V25.3496H15.2236V14.5078H16.1602L16.3105 15.6152H16.3652C16.5111 15.3874 16.6888 15.18 16.8984 14.9932C17.1081 14.8018 17.3633 14.6514 17.6641 14.542C17.9694 14.4281 18.3294 14.3711 18.7441 14.3711ZM18.5459 15.3281C18.0264 15.3281 17.6071 15.4284 17.2881 15.6289C16.9736 15.8294 16.7435 16.1302 16.5977 16.5312C16.4518 16.9277 16.3743 17.4268 16.3652 18.0283V18.2471C16.3652 18.8805 16.4336 19.416 16.5703 19.8535C16.7116 20.291 16.9417 20.6237 17.2607 20.8516C17.5843 21.0794 18.0173 21.1934 18.5596 21.1934C19.0244 21.1934 19.4118 21.068 19.7217 20.8174C20.0316 20.5667 20.2617 20.2181 20.4121 19.7715C20.5671 19.3203 20.6445 18.8031 20.6445 18.2197C20.6445 17.3356 20.4714 16.6338 20.125 16.1143C19.7832 15.5902 19.2568 15.3281 18.5459 15.3281ZM26.7969 22.1367C26.1224 22.1367 25.5277 21.9977 25.0127 21.7197C24.4977 21.4417 24.0967 21.0179 23.8096 20.4482C23.5225 19.8786 23.3789 19.1608 23.3789 18.2949C23.3789 17.388 23.5293 16.6475 23.8301 16.0732C24.1354 15.4945 24.5547 15.0661 25.0879 14.7881C25.6211 14.5101 26.2272 14.3711 26.9062 14.3711C27.2799 14.3711 27.64 14.4098 27.9863 14.4873C28.3372 14.5602 28.6243 14.6536 28.8477 14.7676L28.5059 15.7178C28.278 15.6266 28.0137 15.5446 27.7129 15.4717C27.4167 15.3988 27.1387 15.3623 26.8789 15.3623C26.3594 15.3623 25.9264 15.474 25.5801 15.6973C25.2383 15.9206 24.9808 16.2487 24.8076 16.6816C24.639 17.1146 24.5547 17.6478 24.5547 18.2812C24.5547 18.8874 24.6367 19.4046 24.8008 19.833C24.9694 20.2614 25.2178 20.5895 25.5459 20.8174C25.8786 21.0407 26.2933 21.1523 26.79 21.1523C27.1865 21.1523 27.5443 21.1113 27.8633 21.0293C28.1823 20.9427 28.4717 20.8424 28.7314 20.7285V21.7402C28.4808 21.8678 28.2005 21.9658 27.8906 22.0342C27.5853 22.1025 27.2207 22.1367 26.7969 22.1367ZM35.3555 19.9492C35.3555 20.4277 35.2347 20.8311 34.9932 21.1592C34.7562 21.4827 34.4144 21.7266 33.9678 21.8906C33.5257 22.0547 32.9971 22.1367 32.3818 22.1367C31.8577 22.1367 31.4043 22.0957 31.0215 22.0137C30.6387 21.9316 30.3037 21.8154 30.0166 21.665V20.6191C30.3219 20.7695 30.6865 20.9062 31.1104 21.0293C31.5342 21.1523 31.9671 21.2139 32.4092 21.2139C33.0563 21.2139 33.5257 21.109 33.8174 20.8994C34.109 20.6898 34.2549 20.4049 34.2549 20.0449C34.2549 19.8398 34.1956 19.6598 34.0771 19.5049C33.9632 19.3454 33.7695 19.1927 33.4961 19.0469C33.2227 18.8965 32.8444 18.7324 32.3613 18.5547C31.8828 18.3724 31.4681 18.1924 31.1172 18.0146C30.7708 17.8324 30.502 17.6113 30.3105 17.3516C30.1237 17.0918 30.0303 16.7546 30.0303 16.3398C30.0303 15.7064 30.2855 15.221 30.7959 14.8838C31.3109 14.542 31.9854 14.3711 32.8193 14.3711C33.2705 14.3711 33.6921 14.4167 34.084 14.5078C34.4805 14.5944 34.8496 14.7129 35.1914 14.8633L34.8086 15.7725C34.4987 15.6403 34.1683 15.5286 33.8174 15.4375C33.4665 15.3464 33.1087 15.3008 32.7441 15.3008C32.2201 15.3008 31.8167 15.3874 31.5342 15.5605C31.2562 15.7337 31.1172 15.9707 31.1172 16.2715C31.1172 16.5039 31.181 16.6953 31.3086 16.8457C31.4408 16.9961 31.6504 17.1374 31.9375 17.2695C32.2246 17.4017 32.6029 17.5566 33.0723 17.7344C33.5417 17.9076 33.9473 18.0876 34.2891 18.2744C34.6309 18.4567 34.8929 18.68 35.0752 18.9443C35.262 19.2041 35.3555 19.5391 35.3555 19.9492Z" fill="#F9F9F9"/>
<path d="M10.9307 22V23H11.9307V22H10.9307ZM9.82324 22H8.82324V23H9.82324V22ZM9.82324 14.2275L8.82351 14.2043L8.82324 14.2159V14.2275H9.82324ZM9.83691 13.6943L8.83845 13.6389L8.83771 13.6523L8.83732 13.6658L9.83691 13.6943ZM9.87109 13.1953L10.8678 13.2761L11.0932 10.4966L9.15285 12.4995L9.87109 13.1953ZM9.47461 13.5713L10.1063 14.3465L10.1148 14.3396L10.1231 14.3325L9.47461 13.5713ZM9.0166 13.9473L9.64249 14.7273L9.65298 14.7186L9.0166 13.9473ZM7.875 14.8633L7.08264 15.4733L7.70506 16.2818L8.50083 15.6432L7.875 14.8633ZM7.28027 14.0908L6.67008 13.2986L5.87797 13.9087L6.48791 14.7009L7.28027 14.0908ZM9.9873 12.0059V11.0059H9.64684L9.37711 11.2136L9.9873 12.0059ZM10.9307 12.0059H11.9307V11.0059H10.9307V12.0059ZM10.9307 21H9.82324V23H10.9307V21ZM10.8232 22V14.918H8.82324V22H10.8232ZM10.8232 14.918C10.8232 14.9174 10.8232 14.9169 10.8232 14.9164C10.8232 14.9159 10.8232 14.9153 10.8232 14.9148C10.8232 14.9143 10.8232 14.9138 10.8232 14.9132C10.8232 14.9127 10.8232 14.9122 10.8232 14.9117C10.8232 14.9111 10.8232 14.9106 10.8232 14.9101C10.8232 14.9096 10.8232 14.9091 10.8232 14.9085C10.8232 14.908 10.8232 14.9075 10.8232 14.907C10.8232 14.9064 10.8232 14.9059 10.8232 14.9054C10.8232 14.9049 10.8232 14.9043 10.8232 14.9038C10.8232 14.9033 10.8232 14.9028 10.8232 14.9023C10.8232 14.9017 10.8232 14.9012 10.8232 14.9007C10.8232 14.9002 10.8232 14.8996 10.8232 14.8991C10.8232 14.8986 10.8232 14.8981 10.8232 14.8976C10.8232 14.897 10.8232 14.8965 10.8232 14.896C10.8232 14.8955 10.8232 14.895 10.8232 14.8944C10.8232 14.8939 10.8232 14.8934 10.8232 14.8929C10.8232 14.8924 10.8232 14.8918 10.8232 14.8913C10.8232 14.8908 10.8232 14.8903 10.8232 14.8898C10.8232 14.8892 10.8232 14.8887 10.8232 14.8882C10.8232 14.8877 10.8232 14.8872 10.8232 14.8866C10.8232 14.8861 10.8232 14.8856 10.8232 14.8851C10.8232 14.8846 10.8232 14.884 10.8232 14.8835C10.8232 14.883 10.8232 14.8825 10.8232 14.882C10.8232 14.8814 10.8232 14.8809 10.8232 14.8804C10.8232 14.8799 10.8232 14.8794 10.8232 14.8789C10.8232 14.8783 10.8232 14.8778 10.8232 14.8773C10.8232 14.8768 10.8232 14.8763 10.8232 14.8758C10.8232 14.8752 10.8232 14.8747 10.8232 14.8742C10.8232 14.8737 10.8232 14.8732 10.8232 14.8727C10.8232 14.8721 10.8232 14.8716 10.8232 14.8711C10.8232 14.8706 10.8232 14.8701 10.8232 14.8696C10.8232 14.869 10.8232 14.8685 10.8232 14.868C10.8232 14.8675 10.8232 14.867 10.8232 14.8665C10.8232 14.8659 10.8232 14.8654 10.8232 14.8649C10.8232 14.8644 10.8232 14.8639 10.8232 14.8634C10.8232 14.8629 10.8232 14.8623 10.8232 14.8618C10.8232 14.8613 10.8232 14.8608 10.8232 14.8603C10.8232 14.8598 10.8232 14.8593 10.8232 14.8587C10.8232 14.8582 10.8232 14.8577 10.8232 14.8572C10.8232 14.8567 10.8232 14.8562 10.8232 14.8557C10.8232 14.8551 10.8232 14.8546 10.8232 14.8541C10.8232 14.8536 10.8232 14.8531 10.8232 14.8526C10.8232 14.8521 10.8232 14.8516 10.8232 14.851C10.8232 14.8505 10.8232 14.85 10.8232 14.8495C10.8232 14.849 10.8232 14.8485 10.8232 14.848C10.8232 14.8475 10.8232 14.8469 10.8232 14.8464C10.8232 14.8459 10.8232 14.8454 10.8232 14.8449C10.8232 14.8444 10.8232 14.8439 10.8232 14.8434C10.8232 14.8429 10.8232 14.8423 10.8232 14.8418C10.8232 14.8413 10.8232 14.8408 10.8232 14.8403C10.8232 14.8398 10.8232 14.8393 10.8232 14.8388C10.8232 14.8383 10.8232 14.8378 10.8232 14.8372C10.8232 14.8367 10.8232 14.8362 10.8232 14.8357C10.8232 14.8352 10.8232 14.8347 10.8232 14.8342C10.8232 14.8337 10.8232 14.8332 10.8232 14.8327C10.8232 14.8322 10.8232 14.8316 10.8232 14.8311C10.8232 14.8306 10.8232 14.8301 10.8232 14.8296C10.8232 14.8291 10.8232 14.8286 10.8232 14.8281C10.8232 14.8276 10.8232 14.8271 10.8232 14.8266C10.8232 14.8261 10.8232 14.8255 10.8232 14.825C10.8232 14.8245 10.8232 14.824 10.8232 14.8235C10.8232 14.823 10.8232 14.8225 10.8232 14.822C10.8232 14.8215 10.8232 14.821 10.8232 14.8205C10.8232 14.82 10.8232 14.8195 10.8232 14.819C10.8232 14.8184 10.8232 14.8179 10.8232 14.8174C10.8232 14.8169 10.8232 14.8164 10.8232 14.8159C10.8232 14.8154 10.8232 14.8149 10.8232 14.8144C10.8232 14.8139 10.8232 14.8134 10.8232 14.8129C10.8232 14.8124 10.8232 14.8119 10.8232 14.8114C10.8232 14.8109 10.8232 14.8104 10.8232 14.8099C10.8232 14.8094 10.8232 14.8088 10.8232 14.8083C10.8232 14.8078 10.8232 14.8073 10.8232 14.8068C10.8232 14.8063 10.8232 14.8058 10.8232 14.8053C10.8232 14.8048 10.8232 14.8043 10.8232 14.8038C10.8232 14.8033 10.8232 14.8028 10.8232 14.8023C10.8232 14.8018 10.8232 14.8013 10.8232 14.8008C10.8232 14.8003 10.8232 14.7998 10.8232 14.7993C10.8232 14.7988 10.8232 14.7983 10.8232 14.7978C10.8232 14.7973 10.8232 14.7968 10.8232 14.7963C10.8232 14.7958 10.8232 14.7953 10.8232 14.7948C10.8232 14.7943 10.8232 14.7938 10.8232 14.7933C10.8232 14.7928 10.8232 14.7923 10.8232 14.7918C10.8232 14.7913 10.8232 14.7908 10.8232 14.7903C10.8232 14.7898 10.8232 14.7893 10.8232 14.7888C10.8232 14.7883 10.8232 14.7878 10.8232 14.7873C10.8232 14.7868 10.8232 14.7863 10.8232 14.7858C10.8232 14.7853 10.8232 14.7848 10.8232 14.7843C10.8232 14.7838 10.8232 14.7833 10.8232 14.7828C10.8232 14.7823 10.8232 14.7818 10.8232 14.7813C10.8232 14.7808 10.8232 14.7803 10.8232 14.7798C10.8232 14.7793 10.8232 14.7788 10.8232 14.7783C10.8232 14.7778 10.8232 14.7773 10.8232 14.7768C10.8232 14.7763 10.8232 14.7758 10.8232 14.7753C10.8232 14.7748 10.8232 14.7743 10.8232 14.7738C10.8232 14.7733 10.8232 14.7728 10.8232 14.7723C10.8232 14.7718 10.8232 14.7713 10.8232 14.7708C10.8232 14.7703 10.8232 14.7698 10.8232 14.7693C10.8232 14.7688 10.8232 14.7683 10.8232 14.7678C10.8232 14.7673 10.8232 14.7668 10.8232 14.7663C10.8232 14.7658 10.8232 14.7654 10.8232 14.7649C10.8232 14.7644 10.8232 14.7639 10.8232 14.7634C10.8232 14.7629 10.8232 14.7624 10.8232 14.7619C10.8232 14.7614 10.8232 14.7609 10.8232 14.7604C10.8232 14.7599 10.8232 14.7594 10.8232 14.7589C10.8232 14.7584 10.8232 14.7579 10.8232 14.7574C10.8232 14.7569 10.8232 14.7564 10.8232 14.7559C10.8232 14.7555 10.8232 14.755 10.8232 14.7545C10.8232 14.754 10.8232 14.7535 10.8232 14.753C10.8232 14.7525 10.8232 14.752 10.8232 14.7515C10.8232 14.751 10.8232 14.7505 10.8232 14.75C10.8232 14.7495 10.8232 14.749 10.8232 14.7486C10.8232 14.7481 10.8232 14.7476 10.8232 14.7471C10.8232 14.7466 10.8232 14.7461 10.8232 14.7456C10.8232 14.7451 10.8232 14.7446 10.8232 14.7441C10.8232 14.7436 10.8232 14.7431 10.8232 14.7427C10.8232 14.7422 10.8232 14.7417 10.8232 14.7412C10.8232 14.7407 10.8232 14.7402 10.8232 14.7397C10.8232 14.7392 10.8232 14.7387 10.8232 14.7382C10.8232 14.7377 10.8232 14.7373 10.8232 14.7368C10.8232 14.7363 10.8232 14.7358 10.8232 14.7353C10.8232 14.7348 10.8232 14.7343 10.8232 14.7338C10.8232 14.7333 10.8232 14.7328 10.8232 14.7324C10.8232 14.7319 10.8232 14.7314 10.8232 14.7309C10.8232 14.7304 10.8232 14.7299 10.8232 14.7294C10.8232 14.7289 10.8232 14.7284 10.8232 14.728C10.8232 14.7275 10.8232 14.727 10.8232 14.7265C10.8232 14.726 10.8232 14.7255 10.8232 14.725C10.8232 14.7245 10.8232 14.7241 10.8232 14.7236C10.8232 14.7231 10.8232 14.7226 10.8232 14.7221C10.8232 14.7216 10.8232 14.7211 10.8232 14.7206C10.8232 14.7202 10.8232 14.7197 10.8232 14.7192C10.8232 14.7187 10.8232 14.7182 10.8232 14.7177C10.8232 14.7172 10.8232 14.7168 10.8232 14.7163C10.8232 14.7158 10.8232 14.7153 10.8232 14.7148C10.8232 14.7143 10.8232 14.7138 10.8232 14.7134C10.8232 14.7129 10.8232 14.7124 10.8232 14.7119C10.8232 14.7114 10.8232 14.7109 10.8232 14.7104C10.8232 14.71 10.8232 14.7095 10.8232 14.709C10.8232 14.7085 10.8232 14.708 10.8232 14.7075C10.8232 14.7071 10.8232 14.7066 10.8232 14.7061C10.8232 14.7056 10.8232 14.7051 10.8232 14.7046C10.8232 14.7042 10.8232 14.7037 10.8232 14.7032C10.8232 14.7027 10.8232 14.7022 10.8232 14.7017C10.8232 14.7013 10.8232 14.7008 10.8232 14.7003C10.8232 14.6998 10.8232 14.6993 10.8232 14.6988C10.8232 14.6984 10.8232 14.6979 10.8232 14.6974C10.8232 14.6969 10.8232 14.6964 10.8232 14.696C10.8232 14.6955 10.8232 14.695 10.8232 14.6945C10.8232 14.694 10.8232 14.6935 10.8232 14.6931C10.8232 14.6926 10.8232 14.6921 10.8232 14.6916C10.8232 14.6911 10.8232 14.6907 10.8232 14.6902C10.8232 14.6897 10.8232 14.6892 10.8232 14.6887C10.8232 14.6883 10.8232 14.6878 10.8232 14.6873C10.8232 14.6868 10.8232 14.6863 10.8232 14.6859C10.8232 14.6854 10.8232 14.6849 10.8232 14.6844C10.8232 14.6839 10.8232 14.6835 10.8232 14.683C10.8232 14.6825 10.8232 14.682 10.8232 14.6815C10.8232 14.6811 10.8232 14.6806 10.8232 14.6801C10.8232 14.6796 10.8232 14.6792 10.8232 14.6787C10.8232 14.6782 10.8232 14.6777 10.8232 14.6772C10.8232 14.6768 10.8232 14.6763 10.8232 14.6758C10.8232 14.6753 10.8232 14.6749 10.8232 14.6744C10.8232 14.6739 10.8232 14.6734 10.8232 14.6729C10.8232 14.6725 10.8232 14.672 10.8232 14.6715C10.8232 14.671 10.8232 14.6706 10.8232 14.6701C10.8232 14.6696 10.8232 14.6691 10.8232 14.6687C10.8232 14.6682 10.8232 14.6677 10.8232 14.6672C10.8232 14.6668 10.8232 14.6663 10.8232 14.6658C10.8232 14.6653 10.8232 14.6649 10.8232 14.6644C10.8232 14.6639 10.8232 14.6634 10.8232 14.663C10.8232 14.6625 10.8232 14.662 10.8232 14.6615C10.8232 14.6611 10.8232 14.6606 10.8232 14.6601C10.8232 14.6596 10.8232 14.6592 10.8232 14.6587C10.8232 14.6582 10.8232 14.6577 10.8232 14.6573C10.8232 14.6568 10.8232 14.6563 10.8232 14.6558C10.8232 14.6554 10.8232 14.6549 10.8232 14.6544C10.8232 14.6539 10.8232 14.6535 10.8232 14.653C10.8232 14.6525 10.8232 14.6521 10.8232 14.6516C10.8232 14.6511 10.8232 14.6506 10.8232 14.6502C10.8232 14.6497 10.8232 14.6492 10.8232 14.6487C10.8232 14.6483 10.8232 14.6478 10.8232 14.6473C10.8232 14.6469 10.8232 14.6464 10.8232 14.6459C10.8232 14.6454 10.8232 14.645 10.8232 14.6445C10.8232 14.644 10.8232 14.6436 10.8232 14.6431C10.8232 14.6426 10.8232 14.6421 10.8232 14.6417C10.8232 14.6412 10.8232 14.6407 10.8232 14.6403C10.8232 14.6398 10.8232 14.6393 10.8232 14.6389C10.8232 14.6384 10.8232 14.6379 10.8232 14.6374C10.8232 14.637 10.8232 14.6365 10.8232 14.636C10.8232 14.6356 10.8232 14.6351 10.8232 14.6346C10.8232 14.6342 10.8232 14.6337 10.8232 14.6332C10.8232 14.6328 10.8232 14.6323 10.8232 14.6318C10.8232 14.6314 10.8232 14.6309 10.8232 14.6304C10.8232 14.6299 10.8232 14.6295 10.8232 14.629C10.8232 14.6285 10.8232 14.6281 10.8232 14.6276C10.8232 14.6271 10.8232 14.6267 10.8232 14.6262C10.8232 14.6257 10.8232 14.6253 10.8232 14.6248C10.8232 14.6243 10.8232 14.6239 10.8232 14.6234C10.8232 14.6229 10.8232 14.6225 10.8232 14.622C10.8232 14.6215 10.8232 14.6211 10.8232 14.6206C10.8232 14.6201 10.8232 14.6197 10.8232 14.6192C10.8232 14.6187 10.8232 14.6183 10.8232 14.6178C10.8232 14.6173 10.8232 14.6169 10.8232 14.6164C10.8232 14.616 10.8232 14.6155 10.8232 14.615C10.8232 14.6146 10.8232 14.6141 10.8232 14.6136C10.8232 14.6132 10.8232 14.6127 10.8232 14.6122C10.8232 14.6118 10.8232 14.6113 10.8232 14.6108C10.8232 14.6104 10.8232 14.6099 10.8232 14.6095C10.8232 14.609 10.8232 14.6085 10.8232 14.6081C10.8232 14.6076 10.8232 14.6071 10.8232 14.6067C10.8232 14.6062 10.8232 14.6057 10.8232 14.6053C10.8232 14.6048 10.8232 14.6044 10.8232 14.6039C10.8232 14.6034 10.8232 14.603 10.8232 14.6025C10.8232 14.602 10.8232 14.6016 10.8232 14.6011C10.8232 14.6007 10.8232 14.6002 10.8232 14.5997C10.8232 14.5993 10.8232 14.5988 10.8232 14.5984C10.8232 14.5979 10.8232 14.5974 10.8232 14.597C10.8232 14.5965 10.8232 14.596 10.8232 14.5956C10.8232 14.5951 10.8232 14.5947 10.8232 14.5942C10.8232 14.5937 10.8232 14.5933 10.8232 14.5928C10.8232 14.5924 10.8232 14.5919 10.8232 14.5914C10.8232 14.591 10.8232 14.5905 10.8232 14.5901C10.8232 14.5896 10.8232 14.5891 10.8232 14.5887C10.8232 14.5882 10.8232 14.5878 10.8232 14.5873C10.8232 14.5868 10.8232 14.5864 10.8232 14.5859C10.8232 14.5855 10.8232 14.585 10.8232 14.5846C10.8232 14.5841 10.8232 14.5836 10.8232 14.5832C10.8232 14.5827 10.8232 14.5823 10.8232 14.5818C10.8232 14.5813 10.8232 14.5809 10.8232 14.5804C10.8232 14.58 10.8232 14.5795 10.8232 14.5791C10.8232 14.5786 10.8232 14.5781 10.8232 14.5777C10.8232 14.5772 10.8232 14.5768 10.8232 14.5763C10.8232 14.5759 10.8232 14.5754 10.8232 14.575C10.8232 14.5745 10.8232 14.574 10.8232 14.5736C10.8232 14.5731 10.8232 14.5727 10.8232 14.5722C10.8232 14.5718 10.8232 14.5713 10.8232 14.5708C10.8232 14.5704 10.8232 14.5699 10.8232 14.5695C10.8232 14.569 10.8232 14.5686 10.8232 14.5681C10.8232 14.5677 10.8232 14.5672 10.8232 14.5668C10.8232 14.5663 10.8232 14.5658 10.8232 14.5654C10.8232 14.5649 10.8232 14.5645 10.8232 14.564C10.8232 14.5636 10.8232 14.5631 10.8232 14.5627C10.8232 14.5622 10.8232 14.5618 10.8232 14.5613C10.8232 14.5609 10.8232 14.5604 10.8232 14.5599C10.8232 14.5595 10.8232 14.559 10.8232 14.5586C10.8232 14.5581 10.8232 14.5577 10.8232 14.5572C10.8232 14.5568 10.8232 14.5563 10.8232 14.5559C10.8232 14.5554 10.8232 14.555 10.8232 14.5545C10.8232 14.5541 10.8232 14.5536 10.8232 14.5532C10.8232 14.5527 10.8232 14.5523 10.8232 14.5518C10.8232 14.5514 10.8232 14.5509 10.8232 14.5505C10.8232 14.55 10.8232 14.5496 10.8232 14.5491C10.8232 14.5487 10.8232 14.5482 10.8232 14.5478C10.8232 14.5473 10.8232 14.5469 10.8232 14.5464C10.8232 14.5459 10.8232 14.5455 10.8232 14.5451C10.8232 14.5446 10.8232 14.5442 10.8232 14.5437C10.8232 14.5433 10.8232 14.5428 10.8232 14.5424C10.8232 14.5419 10.8232 14.5415 10.8232 14.541C10.8232 14.5406 10.8232 14.5401 10.8232 14.5397C10.8232 14.5392 10.8232 14.5388 10.8232 14.5383C10.8232 14.5379 10.8232 14.5374 10.8232 14.537C10.8232 14.5365 10.8232 14.5361 10.8232 14.5356C10.8232 14.5352 10.8232 14.5347 10.8232 14.5343C10.8232 14.5338 10.8232 14.5334 10.8232 14.5329C10.8232 14.5325 10.8232 14.532 10.8232 14.5316C10.8232 14.5312 10.8232 14.5307 10.8232 14.5303C10.8232 14.5298 10.8232 14.5294 10.8232 14.5289C10.8232 14.5285 10.8232 14.528 10.8232 14.5276C10.8232 14.5271 10.8232 14.5267 10.8232 14.5262C10.8232 14.5258 10.8232 14.5254 10.8232 14.5249C10.8232 14.5245 10.8232 14.524 10.8232 14.5236C10.8232 14.5231 10.8232 14.5227 10.8232 14.5222C10.8232 14.5218 10.8232 14.5213 10.8232 14.5209C10.8232 14.5205 10.8232 14.52 10.8232 14.5196C10.8232 14.5191 10.8232 14.5187 10.8232 14.5182C10.8232 14.5178 10.8232 14.5174 10.8232 14.5169C10.8232 14.5165 10.8232 14.516 10.8232 14.5156C10.8232 14.5151 10.8232 14.5147 10.8232 14.5142C10.8232 14.5138 10.8232 14.5134 10.8232 14.5129C10.8232 14.5125 10.8232 14.512 10.8232 14.5116C10.8232 14.5112 10.8232 14.5107 10.8232 14.5103C10.8232 14.5098 10.8232 14.5094 10.8232 14.5089C10.8232 14.5085 10.8232 14.5081 10.8232 14.5076C10.8232 14.5072 10.8232 14.5067 10.8232 14.5063C10.8232 14.5058 10.8232 14.5054 10.8232 14.505C10.8232 14.5045 10.8232 14.5041 10.8232 14.5036C10.8232 14.5032 10.8232 14.5028 10.8232 14.5023C10.8232 14.5019 10.8232 14.5014 10.8232 14.501C10.8232 14.5006 10.8232 14.5001 10.8232 14.4997C10.8232 14.4992 10.8232 14.4988 10.8232 14.4984C10.8232 14.4979 10.8232 14.4975 10.8232 14.497C10.8232 14.4966 10.8232 14.4962 10.8232 14.4957C10.8232 14.4953 10.8232 14.4949 10.8232 14.4944C10.8232 14.494 10.8232 14.4935 10.8232 14.4931C10.8232 14.4927 10.8232 14.4922 10.8232 14.4918C10.8232 14.4913 10.8232 14.4909 10.8232 14.4905C10.8232 14.49 10.8232 14.4896 10.8232 14.4892C10.8232 14.4887 10.8232 14.4883 10.8232 14.4878C10.8232 14.4874 10.8232 14.487 10.8232 14.4865C10.8232 14.4861 10.8232 14.4857 10.8232 14.4852C10.8232 14.4848 10.8232 14.4844 10.8232 14.4839C10.8232 14.4835 10.8232 14.483 10.8232 14.4826C10.8232 14.4822 10.8232 14.4817 10.8232 14.4813C10.8232 14.4809 10.8232 14.4804 10.8232 14.48C10.8232 14.4796 10.8232 14.4791 10.8232 14.4787C10.8232 14.4783 10.8232 14.4778 10.8232 14.4774C10.8232 14.4769 10.8232 14.4765 10.8232 14.4761C10.8232 14.4756 10.8232 14.4752 10.8232 14.4748C10.8232 14.4743 10.8232 14.4739 10.8232 14.4735C10.8232 14.473 10.8232 14.4726 10.8232 14.4722C10.8232 14.4717 10.8232 14.4713 10.8232 14.4709C10.8232 14.4704 10.8232 14.47 10.8232 14.4696C10.8232 14.4691 10.8232 14.4687 10.8232 14.4683C10.8232 14.4678 10.8232 14.4674 10.8232 14.467C10.8232 14.4665 10.8232 14.4661 10.8232 14.4657C10.8232 14.4653 10.8232 14.4648 10.8232 14.4644C10.8232 14.464 10.8232 14.4635 10.8232 14.4631C10.8232 14.4627 10.8232 14.4622 10.8232 14.4618C10.8232 14.4614 10.8232 14.4609 10.8232 14.4605C10.8232 14.4601 10.8232 14.4596 10.8232 14.4592C10.8232 14.4588 10.8232 14.4584 10.8232 14.4579C10.8232 14.4575 10.8232 14.4571 10.8232 14.4566C10.8232 14.4562 10.8232 14.4558 10.8232 14.4553C10.8232 14.4549 10.8232 14.4545 10.8232 14.4541C10.8232 14.4536 10.8232 14.4532 10.8232 14.4528C10.8232 14.4523 10.8232 14.4519 10.8232 14.4515C10.8232 14.451 10.8232 14.4506 10.8232 14.4502C10.8232 14.4498 10.8232 14.4493 10.8232 14.4489C10.8232 14.4485 10.8232 14.4481 10.8232 14.4476C10.8232 14.4472 10.8232 14.4468 10.8232 14.4463C10.8232 14.4459 10.8232 14.4455 10.8232 14.4451C10.8232 14.4446 10.8232 14.4442 10.8232 14.4438C10.8232 14.4433 10.8232 14.4429 10.8232 14.4425C10.8232 14.4421 10.8232 14.4416 10.8232 14.4412C10.8232 14.4408 10.8232 14.4404 10.8232 14.4399C10.8232 14.4395 10.8232 14.4391 10.8232 14.4387C10.8232 14.4382 10.8232 14.4378 10.8232 14.4374C10.8232 14.437 10.8232 14.4365 10.8232 14.4361C10.8232 14.4357 10.8232 14.4353 10.8232 14.4348C10.8232 14.4344 10.8232 14.434 10.8232 14.4336C10.8232 14.4331 10.8232 14.4327 10.8232 14.4323C10.8232 14.4319 10.8232 14.4314 10.8232 14.431C10.8232 14.4306 10.8232 14.4302 10.8232 14.4297C10.8232 14.4293 10.8232 14.4289 10.8232 14.4285C10.8232 14.428 10.8232 14.4276 10.8232 14.4272C10.8232 14.4268 10.8232 14.4264 10.8232 14.4259C10.8232 14.4255 10.8232 14.4251 10.8232 14.4247C10.8232 14.4242 10.8232 14.4238 10.8232 14.4234C10.8232 14.423 10.8232 14.4225 10.8232 14.4221C10.8232 14.4217 10.8232 14.4213 10.8232 14.4209C10.8232 14.4204 10.8232 14.42 10.8232 14.4196C10.8232 14.4192 10.8232 14.4188 10.8232 14.4183C10.8232 14.4179 10.8232 14.4175 10.8232 14.4171C10.8232 14.4166 10.8232 14.4162 10.8232 14.4158C10.8232 14.4154 10.8232 14.415 10.8232 14.4145C10.8232 14.4141 10.8232 14.4137 10.8232 14.4133C10.8232 14.4129 10.8232 14.4124 10.8232 14.412C10.8232 14.4116 10.8232 14.4112 10.8232 14.4108C10.8232 14.4103 10.8232 14.4099 10.8232 14.4095C10.8232 14.4091 10.8232 14.4087 10.8232 14.4083C10.8232 14.4078 10.8232 14.4074 10.8232 14.407C10.8232 14.4066 10.8232 14.4062 10.8232 14.4057C10.8232 14.4053 10.8232 14.4049 10.8232 14.4045C10.8232 14.4041 10.8232 14.4037 10.8232 14.4032C10.8232 14.4028 10.8232 14.4024 10.8232 14.402C10.8232 14.4016 10.8232 14.4011 10.8232 14.4007C10.8232 14.4003 10.8232 14.3999 10.8232 14.3995C10.8232 14.3991 10.8232 14.3986 10.8232 14.3982C10.8232 14.3978 10.8232 14.3974 10.8232 14.397C10.8232 14.3966 10.8232 14.3961 10.8232 14.3957C10.8232 14.3953 10.8232 14.3949 10.8232 14.3945C10.8232 14.3941 10.8232 14.3937 10.8232 14.3932C10.8232 14.3928 10.8232 14.3924 10.8232 14.392C10.8232 14.3916 10.8232 14.3912 10.8232 14.3908C10.8232 14.3903 10.8232 14.3899 10.8232 14.3895C10.8232 14.3891 10.8232 14.3887 10.8232 14.3883C10.8232 14.3879 10.8232 14.3874 10.8232 14.387C10.8232 14.3866 10.8232 14.3862 10.8232 14.3858C10.8232 14.3854 10.8232 14.385 10.8232 14.3845C10.8232 14.3841 10.8232 14.3837 10.8232 14.3833C10.8232 14.3829 10.8232 14.3825 10.8232 14.3821C10.8232 14.3817 10.8232 14.3812 10.8232 14.3808C10.8232 14.3804 10.8232 14.38 10.8232 14.3796C10.8232 14.3792 10.8232 14.3788 10.8232 14.3784C10.8232 14.3779 10.8232 14.3775 10.8232 14.3771C10.8232 14.3767 10.8232 14.3763 10.8232 14.3759C10.8232 14.3755 10.8232 14.3751 10.8232 14.3747C10.8232 14.3742 10.8232 14.3738 10.8232 14.3734C10.8232 14.373 10.8232 14.3726 10.8232 14.3722C10.8232 14.3718 10.8232 14.3714 10.8232 14.371C10.8232 14.3706 10.8232 14.3701 10.8232 14.3697C10.8232 14.3693 10.8232 14.3689 10.8232 14.3685C10.8232 14.3681 10.8232 14.3677 10.8232 14.3673C10.8232 14.3669 10.8232 14.3665 10.8232 14.3661C10.8232 14.3656 10.8232 14.3652 10.8232 14.3648C10.8232 14.3644 10.8232 14.364 10.8232 14.3636C10.8232 14.3632 10.8232 14.3628 10.8232 14.3624C10.8232 14.362 10.8232 14.3616 10.8232 14.3612C10.8232 14.3607 10.8232 14.3603 10.8232 14.3599C10.8232 14.3595 10.8232 14.3591 10.8232 14.3587C10.8232 14.3583 10.8232 14.3579 10.8232 14.3575C10.8232 14.3571 10.8232 14.3567 10.8232 14.3563C10.8232 14.3559 10.8232 14.3555 10.8232 14.3551C10.8232 14.3546 10.8232 14.3542 10.8232 14.3538C10.8232 14.3534 10.8232 14.353 10.8232 14.3526C10.8232 14.3522 10.8232 14.3518 10.8232 14.3514C10.8232 14.351 10.8232 14.3506 10.8232 14.3502C10.8232 14.3498 10.8232 14.3494 10.8232 14.349C10.8232 14.3486 10.8232 14.3482 10.8232 14.3478C10.8232 14.3474 10.8232 14.347 10.8232 14.3465C10.8232 14.3461 10.8232 14.3457 10.8232 14.3453C10.8232 14.3449 10.8232 14.3445 10.8232 14.3441C10.8232 14.3437 10.8232 14.3433 10.8232 14.3429C10.8232 14.3425 10.8232 14.3421 10.8232 14.3417C10.8232 14.3413 10.8232 14.3409 10.8232 14.3405C10.8232 14.3401 10.8232 14.3397 10.8232 14.3393C10.8232 14.3389 10.8232 14.3385 10.8232 14.3381C10.8232 14.3377 10.8232 14.3373 10.8232 14.3369C10.8232 14.3365 10.8232 14.3361 10.8232 14.3357C10.8232 14.3353 10.8232 14.3349 10.8232 14.3345C10.8232 14.3341 10.8232 14.3337 10.8232 14.3333C10.8232 14.3329 10.8232 14.3325 10.8232 14.3321C10.8232 14.3317 10.8232 14.3313 10.8232 14.3309C10.8232 14.3305 10.8232 14.3301 10.8232 14.3297C10.8232 14.3293 10.8232 14.3289 10.8232 14.3285C10.8232 14.3281 10.8232 14.3277 10.8232 14.3273C10.8232 14.3269 10.8232 14.3265 10.8232 14.3261C10.8232 14.3257 10.8232 14.3253 10.8232 14.3249C10.8232 14.3245 10.8232 14.3241 10.8232 14.3237C10.8232 14.3233 10.8232 14.3229 10.8232 14.3225C10.8232 14.3221 10.8232 14.3217 10.8232 14.3213C10.8232 14.3209 10.8232 14.3205 10.8232 14.3201C10.8232 14.3197 10.8232 14.3193 10.8232 14.3189C10.8232 14.3185 10.8232 14.3181 10.8232 14.3177C10.8232 14.3173 10.8232 14.3169 10.8232 14.3165C10.8232 14.3161 10.8232 14.3157 10.8232 14.3153C10.8232 14.3149 10.8232 14.3145 10.8232 14.3141C10.8232 14.3138 10.8232 14.3134 10.8232 14.313C10.8232 14.3126 10.8232 14.3122 10.8232 14.3118C10.8232 14.3114 10.8232 14.311 10.8232 14.3106C10.8232 14.3102 10.8232 14.3098 10.8232 14.3094C10.8232 14.309 10.8232 14.3086 10.8232 14.3082C10.8232 14.3078 10.8232 14.3074 10.8232 14.307C10.8232 14.3066 10.8232 14.3062 10.8232 14.3059C10.8232 14.3055 10.8232 14.3051 10.8232 14.3047C10.8232 14.3043 10.8232 14.3039 10.8232 14.3035C10.8232 14.3031 10.8232 14.3027 10.8232 14.3023C10.8232 14.3019 10.8232 14.3015 10.8232 14.3011C10.8232 14.3007 10.8232 14.3003 10.8232 14.3C10.8232 14.2996 10.8232 14.2992 10.8232 14.2988C10.8232 14.2984 10.8232 14.298 10.8232 14.2976C10.8232 14.2972 10.8232 14.2968 10.8232 14.2964C10.8232 14.296 10.8232 14.2956 10.8232 14.2953C10.8232 14.2949 10.8232 14.2945 10.8232 14.2941C10.8232 14.2937 10.8232 14.2933 10.8232 14.2929C10.8232 14.2925 10.8232 14.2921 10.8232 14.2917C10.8232 14.2913 10.8232 14.291 10.8232 14.2906C10.8232 14.2902 10.8232 14.2898 10.8232 14.2894C10.8232 14.289 10.8232 14.2886 10.8232 14.2882C10.8232 14.2878 10.8232 14.2874 10.8232 14.2871C10.8232 14.2867 10.8232 14.2863 10.8232 14.2859C10.8232 14.2855 10.8232 14.2851 10.8232 14.2847C10.8232 14.2843 10.8232 14.2839 10.8232 14.2836C10.8232 14.2832 10.8232 14.2828 10.8232 14.2824C10.8232 14.282 10.8232 14.2816 10.8232 14.2812C10.8232 14.2808 10.8232 14.2805 10.8232 14.2801C10.8232 14.2797 10.8232 14.2793 10.8232 14.2789C10.8232 14.2785 10.8232 14.2781 10.8232 14.2777C10.8232 14.2774 10.8232 14.277 10.8232 14.2766C10.8232 14.2762 10.8232 14.2758 10.8232 14.2754C10.8232 14.275 10.8232 14.2747 10.8232 14.2743C10.8232 14.2739 10.8232 14.2735 10.8232 14.2731C10.8232 14.2727 10.8232 14.2723 10.8232 14.272C10.8232 14.2716 10.8232 14.2712 10.8232 14.2708C10.8232 14.2704 10.8232 14.27 10.8232 14.2696C10.8232 14.2693 10.8232 14.2689 10.8232 14.2685C10.8232 14.2681 10.8232 14.2677 10.8232 14.2673C10.8232 14.267 10.8232 14.2666 10.8232 14.2662C10.8232 14.2658 10.8232 14.2654 10.8232 14.265C10.8232 14.2646 10.8232 14.2643 10.8232 14.2639C10.8232 14.2635 10.8232 14.2631 10.8232 14.2627C10.8232 14.2623 10.8232 14.262 10.8232 14.2616C10.8232 14.2612 10.8232 14.2608 10.8232 14.2604C10.8232 14.2601 10.8232 14.2597 10.8232 14.2593C10.8232 14.2589 10.8232 14.2585 10.8232 14.2581C10.8232 14.2578 10.8232 14.2574 10.8232 14.257C10.8232 14.2566 10.8232 14.2562 10.8232 14.2559C10.8232 14.2555 10.8232 14.2551 10.8232 14.2547C10.8232 14.2543 10.8232 14.2539 10.8232 14.2536C10.8232 14.2532 10.8232 14.2528 10.8232 14.2524C10.8232 14.252 10.8232 14.2517 10.8232 14.2513C10.8232 14.2509 10.8232 14.2505 10.8232 14.2501C10.8232 14.2498 10.8232 14.2494 10.8232 14.249C10.8232 14.2486 10.8232 14.2482 10.8232 14.2479C10.8232 14.2475 10.8232 14.2471 10.8232 14.2467C10.8232 14.2464 10.8232 14.246 10.8232 14.2456C10.8232 14.2452 10.8232 14.2448 10.8232 14.2445C10.8232 14.2441 10.8232 14.2437 10.8232 14.2433C10.8232 14.2429 10.8232 14.2426 10.8232 14.2422C10.8232 14.2418 10.8232 14.2414 10.8232 14.2411C10.8232 14.2407 10.8232 14.2403 10.8232 14.2399C10.8232 14.2396 10.8232 14.2392 10.8232 14.2388C10.8232 14.2384 10.8232 14.238 10.8232 14.2377C10.8232 14.2373 10.8232 14.2369 10.8232 14.2365C10.8232 14.2362 10.8232 14.2358 10.8232 14.2354C10.8232 14.235 10.8232 14.2347 10.8232 14.2343C10.8232 14.2339 10.8232 14.2335 10.8232 14.2332C10.8232 14.2328 10.8232 14.2324 10.8232 14.232C10.8232 14.2317 10.8232 14.2313 10.8232 14.2309C10.8232 14.2305 10.8232 14.2302 10.8232 14.2298C10.8232 14.2294 10.8232 14.229 10.8232 14.2287C10.8232 14.2283 10.8232 14.2279 10.8232 14.2275H8.82324C8.82324 14.2279 8.82324 14.2283 8.82324 14.2287C8.82324 14.229 8.82324 14.2294 8.82324 14.2298C8.82324 14.2302 8.82324 14.2305 8.82324 14.2309C8.82324 14.2313 8.82324 14.2317 8.82324 14.232C8.82324 14.2324 8.82324 14.2328 8.82324 14.2332C8.82324 14.2335 8.82324 14.2339 8.82324 14.2343C8.82324 14.2347 8.82324 14.235 8.82324 14.2354C8.82324 14.2358 8.82324 14.2362 8.82324 14.2365C8.82324 14.2369 8.82324 14.2373 8.82324 14.2377C8.82324 14.238 8.82324 14.2384 8.82324 14.2388C8.82324 14.2392 8.82324 14.2396 8.82324 14.2399C8.82324 14.2403 8.82324 14.2407 8.82324 14.2411C8.82324 14.2414 8.82324 14.2418 8.82324 14.2422C8.82324 14.2426 8.82324 14.2429 8.82324 14.2433C8.82324 14.2437 8.82324 14.2441 8.82324 14.2445C8.82324 14.2448 8.82324 14.2452 8.82324 14.2456C8.82324 14.246 8.82324 14.2464 8.82324 14.2467C8.82324 14.2471 8.82324 14.2475 8.82324 14.2479C8.82324 14.2482 8.82324 14.2486 8.82324 14.249C8.82324 14.2494 8.82324 14.2498 8.82324 14.2501C8.82324 14.2505 8.82324 14.2509 8.82324 14.2513C8.82324 14.2517 8.82324 14.252 8.82324 14.2524C8.82324 14.2528 8.82324 14.2532 8.82324 14.2536C8.82324 14.2539 8.82324 14.2543 8.82324 14.2547C8.82324 14.2551 8.82324 14.2555 8.82324 14.2559C8.82324 14.2562 8.82324 14.2566 8.82324 14.257C8.82324 14.2574 8.82324 14.2578 8.82324 14.2581C8.82324 14.2585 8.82324 14.2589 8.82324 14.2593C8.82324 14.2597 8.82324 14.2601 8.82324 14.2604C8.82324 14.2608 8.82324 14.2612 8.82324 14.2616C8.82324 14.262 8.82324 14.2623 8.82324 14.2627C8.82324 14.2631 8.82324 14.2635 8.82324 14.2639C8.82324 14.2643 8.82324 14.2646 8.82324 14.265C8.82324 14.2654 8.82324 14.2658 8.82324 14.2662C8.82324 14.2666 8.82324 14.267 8.82324 14.2673C8.82324 14.2677 8.82324 14.2681 8.82324 14.2685C8.82324 14.2689 8.82324 14.2693 8.82324 14.2696C8.82324 14.27 8.82324 14.2704 8.82324 14.2708C8.82324 14.2712 8.82324 14.2716 8.82324 14.272C8.82324 14.2723 8.82324 14.2727 8.82324 14.2731C8.82324 14.2735 8.82324 14.2739 8.82324 14.2743C8.82324 14.2747 8.82324 14.275 8.82324 14.2754C8.82324 14.2758 8.82324 14.2762 8.82324 14.2766C8.82324 14.277 8.82324 14.2774 8.82324 14.2777C8.82324 14.2781 8.82324 14.2785 8.82324 14.2789C8.82324 14.2793 8.82324 14.2797 8.82324 14.2801C8.82324 14.2805 8.82324 14.2808 8.82324 14.2812C8.82324 14.2816 8.82324 14.282 8.82324 14.2824C8.82324 14.2828 8.82324 14.2832 8.82324 14.2836C8.82324 14.2839 8.82324 14.2843 8.82324 14.2847C8.82324 14.2851 8.82324 14.2855 8.82324 14.2859C8.82324 14.2863 8.82324 14.2867 8.82324 14.2871C8.82324 14.2874 8.82324 14.2878 8.82324 14.2882C8.82324 14.2886 8.82324 14.289 8.82324 14.2894C8.82324 14.2898 8.82324 14.2902 8.82324 14.2906C8.82324 14.291 8.82324 14.2913 8.82324 14.2917C8.82324 14.2921 8.82324 14.2925 8.82324 14.2929C8.82324 14.2933 8.82324 14.2937 8.82324 14.2941C8.82324 14.2945 8.82324 14.2949 8.82324 14.2953C8.82324 14.2956 8.82324 14.296 8.82324 14.2964C8.82324 14.2968 8.82324 14.2972 8.82324 14.2976C8.82324 14.298 8.82324 14.2984 8.82324 14.2988C8.82324 14.2992 8.82324 14.2996 8.82324 14.3C8.82324 14.3003 8.82324 14.3007 8.82324 14.3011C8.82324 14.3015 8.82324 14.3019 8.82324 14.3023C8.82324 14.3027 8.82324 14.3031 8.82324 14.3035C8.82324 14.3039 8.82324 14.3043 8.82324 14.3047C8.82324 14.3051 8.82324 14.3055 8.82324 14.3059C8.82324 14.3062 8.82324 14.3066 8.82324 14.307C8.82324 14.3074 8.82324 14.3078 8.82324 14.3082C8.82324 14.3086 8.82324 14.309 8.82324 14.3094C8.82324 14.3098 8.82324 14.3102 8.82324 14.3106C8.82324 14.311 8.82324 14.3114 8.82324 14.3118C8.82324 14.3122 8.82324 14.3126 8.82324 14.313C8.82324 14.3134 8.82324 14.3138 8.82324 14.3141C8.82324 14.3145 8.82324 14.3149 8.82324 14.3153C8.82324 14.3157 8.82324 14.3161 8.82324 14.3165C8.82324 14.3169 8.82324 14.3173 8.82324 14.3177C8.82324 14.3181 8.82324 14.3185 8.82324 14.3189C8.82324 14.3193 8.82324 14.3197 8.82324 14.3201C8.82324 14.3205 8.82324 14.3209 8.82324 14.3213C8.82324 14.3217 8.82324 14.3221 8.82324 14.3225C8.82324 14.3229 8.82324 14.3233 8.82324 14.3237C8.82324 14.3241 8.82324 14.3245 8.82324 14.3249C8.82324 14.3253 8.82324 14.3257 8.82324 14.3261C8.82324 14.3265 8.82324 14.3269 8.82324 14.3273C8.82324 14.3277 8.82324 14.3281 8.82324 14.3285C8.82324 14.3289 8.82324 14.3293 8.82324 14.3297C8.82324 14.3301 8.82324 14.3305 8.82324 14.3309C8.82324 14.3313 8.82324 14.3317 8.82324 14.3321C8.82324 14.3325 8.82324 14.3329 8.82324 14.3333C8.82324 14.3337 8.82324 14.3341 8.82324 14.3345C8.82324 14.3349 8.82324 14.3353 8.82324 14.3357C8.82324 14.3361 8.82324 14.3365 8.82324 14.3369C8.82324 14.3373 8.82324 14.3377 8.82324 14.3381C8.82324 14.3385 8.82324 14.3389 8.82324 14.3393C8.82324 14.3397 8.82324 14.3401 8.82324 14.3405C8.82324 14.3409 8.82324 14.3413 8.82324 14.3417C8.82324 14.3421 8.82324 14.3425 8.82324 14.3429C8.82324 14.3433 8.82324 14.3437 8.82324 14.3441C8.82324 14.3445 8.82324 14.3449 8.82324 14.3453C8.82324 14.3457 8.82324 14.3461 8.82324 14.3465C8.82324 14.347 8.82324 14.3474 8.82324 14.3478C8.82324 14.3482 8.82324 14.3486 8.82324 14.349C8.82324 14.3494 8.82324 14.3498 8.82324 14.3502C8.82324 14.3506 8.82324 14.351 8.82324 14.3514C8.82324 14.3518 8.82324 14.3522 8.82324 14.3526C8.82324 14.353 8.82324 14.3534 8.82324 14.3538C8.82324 14.3542 8.82324 14.3546 8.82324 14.3551C8.82324 14.3555 8.82324 14.3559 8.82324 14.3563C8.82324 14.3567 8.82324 14.3571 8.82324 14.3575C8.82324 14.3579 8.82324 14.3583 8.82324 14.3587C8.82324 14.3591 8.82324 14.3595 8.82324 14.3599C8.82324 14.3603 8.82324 14.3607 8.82324 14.3612C8.82324 14.3616 8.82324 14.362 8.82324 14.3624C8.82324 14.3628 8.82324 14.3632 8.82324 14.3636C8.82324 14.364 8.82324 14.3644 8.82324 14.3648C8.82324 14.3652 8.82324 14.3656 8.82324 14.3661C8.82324 14.3665 8.82324 14.3669 8.82324 14.3673C8.82324 14.3677 8.82324 14.3681 8.82324 14.3685C8.82324 14.3689 8.82324 14.3693 8.82324 14.3697C8.82324 14.3701 8.82324 14.3706 8.82324 14.371C8.82324 14.3714 8.82324 14.3718 8.82324 14.3722C8.82324 14.3726 8.82324 14.373 8.82324 14.3734C8.82324 14.3738 8.82324 14.3742 8.82324 14.3747C8.82324 14.3751 8.82324 14.3755 8.82324 14.3759C8.82324 14.3763 8.82324 14.3767 8.82324 14.3771C8.82324 14.3775 8.82324 14.3779 8.82324 14.3784C8.82324 14.3788 8.82324 14.3792 8.82324 14.3796C8.82324 14.38 8.82324 14.3804 8.82324 14.3808C8.82324 14.3812 8.82324 14.3817 8.82324 14.3821C8.82324 14.3825 8.82324 14.3829 8.82324 14.3833C8.82324 14.3837 8.82324 14.3841 8.82324 14.3845C8.82324 14.385 8.82324 14.3854 8.82324 14.3858C8.82324 14.3862 8.82324 14.3866 8.82324 14.387C8.82324 14.3874 8.82324 14.3879 8.82324 14.3883C8.82324 14.3887 8.82324 14.3891 8.82324 14.3895C8.82324 14.3899 8.82324 14.3903 8.82324 14.3908C8.82324 14.3912 8.82324 14.3916 8.82324 14.392C8.82324 14.3924 8.82324 14.3928 8.82324 14.3932C8.82324 14.3937 8.82324 14.3941 8.82324 14.3945C8.82324 14.3949 8.82324 14.3953 8.82324 14.3957C8.82324 14.3961 8.82324 14.3966 8.82324 14.397C8.82324 14.3974 8.82324 14.3978 8.82324 14.3982C8.82324 14.3986 8.82324 14.3991 8.82324 14.3995C8.82324 14.3999 8.82324 14.4003 8.82324 14.4007C8.82324 14.4011 8.82324 14.4016 8.82324 14.402C8.82324 14.4024 8.82324 14.4028 8.82324 14.4032C8.82324 14.4037 8.82324 14.4041 8.82324 14.4045C8.82324 14.4049 8.82324 14.4053 8.82324 14.4057C8.82324 14.4062 8.82324 14.4066 8.82324 14.407C8.82324 14.4074 8.82324 14.4078 8.82324 14.4083C8.82324 14.4087 8.82324 14.4091 8.82324 14.4095C8.82324 14.4099 8.82324 14.4103 8.82324 14.4108C8.82324 14.4112 8.82324 14.4116 8.82324 14.412C8.82324 14.4124 8.82324 14.4129 8.82324 14.4133C8.82324 14.4137 8.82324 14.4141 8.82324 14.4145C8.82324 14.415 8.82324 14.4154 8.82324 14.4158C8.82324 14.4162 8.82324 14.4166 8.82324 14.4171C8.82324 14.4175 8.82324 14.4179 8.82324 14.4183C8.82324 14.4188 8.82324 14.4192 8.82324 14.4196C8.82324 14.42 8.82324 14.4204 8.82324 14.4209C8.82324 14.4213 8.82324 14.4217 8.82324 14.4221C8.82324 14.4225 8.82324 14.423 8.82324 14.4234C8.82324 14.4238 8.82324 14.4242 8.82324 14.4247C8.82324 14.4251 8.82324 14.4255 8.82324 14.4259C8.82324 14.4264 8.82324 14.4268 8.82324 14.4272C8.82324 14.4276 8.82324 14.428 8.82324 14.4285C8.82324 14.4289 8.82324 14.4293 8.82324 14.4297C8.82324 14.4302 8.82324 14.4306 8.82324 14.431C8.82324 14.4314 8.82324 14.4319 8.82324 14.4323C8.82324 14.4327 8.82324 14.4331 8.82324 14.4336C8.82324 14.434 8.82324 14.4344 8.82324 14.4348C8.82324 14.4353 8.82324 14.4357 8.82324 14.4361C8.82324 14.4365 8.82324 14.437 8.82324 14.4374C8.82324 14.4378 8.82324 14.4382 8.82324 14.4387C8.82324 14.4391 8.82324 14.4395 8.82324 14.4399C8.82324 14.4404 8.82324 14.4408 8.82324 14.4412C8.82324 14.4416 8.82324 14.4421 8.82324 14.4425C8.82324 14.4429 8.82324 14.4433 8.82324 14.4438C8.82324 14.4442 8.82324 14.4446 8.82324 14.4451C8.82324 14.4455 8.82324 14.4459 8.82324 14.4463C8.82324 14.4468 8.82324 14.4472 8.82324 14.4476C8.82324 14.4481 8.82324 14.4485 8.82324 14.4489C8.82324 14.4493 8.82324 14.4498 8.82324 14.4502C8.82324 14.4506 8.82324 14.451 8.82324 14.4515C8.82324 14.4519 8.82324 14.4523 8.82324 14.4528C8.82324 14.4532 8.82324 14.4536 8.82324 14.4541C8.82324 14.4545 8.82324 14.4549 8.82324 14.4553C8.82324 14.4558 8.82324 14.4562 8.82324 14.4566C8.82324 14.4571 8.82324 14.4575 8.82324 14.4579C8.82324 14.4584 8.82324 14.4588 8.82324 14.4592C8.82324 14.4596 8.82324 14.4601 8.82324 14.4605C8.82324 14.4609 8.82324 14.4614 8.82324 14.4618C8.82324 14.4622 8.82324 14.4627 8.82324 14.4631C8.82324 14.4635 8.82324 14.464 8.82324 14.4644C8.82324 14.4648 8.82324 14.4653 8.82324 14.4657C8.82324 14.4661 8.82324 14.4665 8.82324 14.467C8.82324 14.4674 8.82324 14.4678 8.82324 14.4683C8.82324 14.4687 8.82324 14.4691 8.82324 14.4696C8.82324 14.47 8.82324 14.4704 8.82324 14.4709C8.82324 14.4713 8.82324 14.4717 8.82324 14.4722C8.82324 14.4726 8.82324 14.473 8.82324 14.4735C8.82324 14.4739 8.82324 14.4743 8.82324 14.4748C8.82324 14.4752 8.82324 14.4756 8.82324 14.4761C8.82324 14.4765 8.82324 14.4769 8.82324 14.4774C8.82324 14.4778 8.82324 14.4783 8.82324 14.4787C8.82324 14.4791 8.82324 14.4796 8.82324 14.48C8.82324 14.4804 8.82324 14.4809 8.82324 14.4813C8.82324 14.4817 8.82324 14.4822 8.82324 14.4826C8.82324 14.483 8.82324 14.4835 8.82324 14.4839C8.82324 14.4844 8.82324 14.4848 8.82324 14.4852C8.82324 14.4857 8.82324 14.4861 8.82324 14.4865C8.82324 14.487 8.82324 14.4874 8.82324 14.4878C8.82324 14.4883 8.82324 14.4887 8.82324 14.4892C8.82324 14.4896 8.82324 14.49 8.82324 14.4905C8.82324 14.4909 8.82324 14.4913 8.82324 14.4918C8.82324 14.4922 8.82324 14.4927 8.82324 14.4931C8.82324 14.4935 8.82324 14.494 8.82324 14.4944C8.82324 14.4949 8.82324 14.4953 8.82324 14.4957C8.82324 14.4962 8.82324 14.4966 8.82324 14.497C8.82324 14.4975 8.82324 14.4979 8.82324 14.4984C8.82324 14.4988 8.82324 14.4992 8.82324 14.4997C8.82324 14.5001 8.82324 14.5006 8.82324 14.501C8.82324 14.5014 8.82324 14.5019 8.82324 14.5023C8.82324 14.5028 8.82324 14.5032 8.82324 14.5036C8.82324 14.5041 8.82324 14.5045 8.82324 14.505C8.82324 14.5054 8.82324 14.5058 8.82324 14.5063C8.82324 14.5067 8.82324 14.5072 8.82324 14.5076C8.82324 14.5081 8.82324 14.5085 8.82324 14.5089C8.82324 14.5094 8.82324 14.5098 8.82324 14.5103C8.82324 14.5107 8.82324 14.5112 8.82324 14.5116C8.82324 14.512 8.82324 14.5125 8.82324 14.5129C8.82324 14.5134 8.82324 14.5138 8.82324 14.5142C8.82324 14.5147 8.82324 14.5151 8.82324 14.5156C8.82324 14.516 8.82324 14.5165 8.82324 14.5169C8.82324 14.5174 8.82324 14.5178 8.82324 14.5182C8.82324 14.5187 8.82324 14.5191 8.82324 14.5196C8.82324 14.52 8.82324 14.5205 8.82324 14.5209C8.82324 14.5213 8.82324 14.5218 8.82324 14.5222C8.82324 14.5227 8.82324 14.5231 8.82324 14.5236C8.82324 14.524 8.82324 14.5245 8.82324 14.5249C8.82324 14.5254 8.82324 14.5258 8.82324 14.5262C8.82324 14.5267 8.82324 14.5271 8.82324 14.5276C8.82324 14.528 8.82324 14.5285 8.82324 14.5289C8.82324 14.5294 8.82324 14.5298 8.82324 14.5303C8.82324 14.5307 8.82324 14.5312 8.82324 14.5316C8.82324 14.532 8.82324 14.5325 8.82324 14.5329C8.82324 14.5334 8.82324 14.5338 8.82324 14.5343C8.82324 14.5347 8.82324 14.5352 8.82324 14.5356C8.82324 14.5361 8.82324 14.5365 8.82324 14.537C8.82324 14.5374 8.82324 14.5379 8.82324 14.5383C8.82324 14.5388 8.82324 14.5392 8.82324 14.5397C8.82324 14.5401 8.82324 14.5406 8.82324 14.541C8.82324 14.5415 8.82324 14.5419 8.82324 14.5424C8.82324 14.5428 8.82324 14.5433 8.82324 14.5437C8.82324 14.5442 8.82324 14.5446 8.82324 14.5451C8.82324 14.5455 8.82324 14.5459 8.82324 14.5464C8.82324 14.5469 8.82324 14.5473 8.82324 14.5478C8.82324 14.5482 8.82324 14.5487 8.82324 14.5491C8.82324 14.5496 8.82324 14.55 8.82324 14.5505C8.82324 14.5509 8.82324 14.5514 8.82324 14.5518C8.82324 14.5523 8.82324 14.5527 8.82324 14.5532C8.82324 14.5536 8.82324 14.5541 8.82324 14.5545C8.82324 14.555 8.82324 14.5554 8.82324 14.5559C8.82324 14.5563 8.82324 14.5568 8.82324 14.5572C8.82324 14.5577 8.82324 14.5581 8.82324 14.5586C8.82324 14.559 8.82324 14.5595 8.82324 14.5599C8.82324 14.5604 8.82324 14.5609 8.82324 14.5613C8.82324 14.5618 8.82324 14.5622 8.82324 14.5627C8.82324 14.5631 8.82324 14.5636 8.82324 14.564C8.82324 14.5645 8.82324 14.5649 8.82324 14.5654C8.82324 14.5658 8.82324 14.5663 8.82324 14.5668C8.82324 14.5672 8.82324 14.5677 8.82324 14.5681C8.82324 14.5686 8.82324 14.569 8.82324 14.5695C8.82324 14.5699 8.82324 14.5704 8.82324 14.5708C8.82324 14.5713 8.82324 14.5718 8.82324 14.5722C8.82324 14.5727 8.82324 14.5731 8.82324 14.5736C8.82324 14.574 8.82324 14.5745 8.82324 14.575C8.82324 14.5754 8.82324 14.5759 8.82324 14.5763C8.82324 14.5768 8.82324 14.5772 8.82324 14.5777C8.82324 14.5781 8.82324 14.5786 8.82324 14.5791C8.82324 14.5795 8.82324 14.58 8.82324 14.5804C8.82324 14.5809 8.82324 14.5813 8.82324 14.5818C8.82324 14.5823 8.82324 14.5827 8.82324 14.5832C8.82324 14.5836 8.82324 14.5841 8.82324 14.5846C8.82324 14.585 8.82324 14.5855 8.82324 14.5859C8.82324 14.5864 8.82324 14.5868 8.82324 14.5873C8.82324 14.5878 8.82324 14.5882 8.82324 14.5887C8.82324 14.5891 8.82324 14.5896 8.82324 14.5901C8.82324 14.5905 8.82324 14.591 8.82324 14.5914C8.82324 14.5919 8.82324 14.5924 8.82324 14.5928C8.82324 14.5933 8.82324 14.5937 8.82324 14.5942C8.82324 14.5947 8.82324 14.5951 8.82324 14.5956C8.82324 14.596 8.82324 14.5965 8.82324 14.597C8.82324 14.5974 8.82324 14.5979 8.82324 14.5984C8.82324 14.5988 8.82324 14.5993 8.82324 14.5997C8.82324 14.6002 8.82324 14.6007 8.82324 14.6011C8.82324 14.6016 8.82324 14.602 8.82324 14.6025C8.82324 14.603 8.82324 14.6034 8.82324 14.6039C8.82324 14.6044 8.82324 14.6048 8.82324 14.6053C8.82324 14.6057 8.82324 14.6062 8.82324 14.6067C8.82324 14.6071 8.82324 14.6076 8.82324 14.6081C8.82324 14.6085 8.82324 14.609 8.82324 14.6095C8.82324 14.6099 8.82324 14.6104 8.82324 14.6108C8.82324 14.6113 8.82324 14.6118 8.82324 14.6122C8.82324 14.6127 8.82324 14.6132 8.82324 14.6136C8.82324 14.6141 8.82324 14.6146 8.82324 14.615C8.82324 14.6155 8.82324 14.616 8.82324 14.6164C8.82324 14.6169 8.82324 14.6173 8.82324 14.6178C8.82324 14.6183 8.82324 14.6187 8.82324 14.6192C8.82324 14.6197 8.82324 14.6201 8.82324 14.6206C8.82324 14.6211 8.82324 14.6215 8.82324 14.622C8.82324 14.6225 8.82324 14.6229 8.82324 14.6234C8.82324 14.6239 8.82324 14.6243 8.82324 14.6248C8.82324 14.6253 8.82324 14.6257 8.82324 14.6262C8.82324 14.6267 8.82324 14.6271 8.82324 14.6276C8.82324 14.6281 8.82324 14.6285 8.82324 14.629C8.82324 14.6295 8.82324 14.6299 8.82324 14.6304C8.82324 14.6309 8.82324 14.6314 8.82324 14.6318C8.82324 14.6323 8.82324 14.6328 8.82324 14.6332C8.82324 14.6337 8.82324 14.6342 8.82324 14.6346C8.82324 14.6351 8.82324 14.6356 8.82324 14.636C8.82324 14.6365 8.82324 14.637 8.82324 14.6374C8.82324 14.6379 8.82324 14.6384 8.82324 14.6389C8.82324 14.6393 8.82324 14.6398 8.82324 14.6403C8.82324 14.6407 8.82324 14.6412 8.82324 14.6417C8.82324 14.6421 8.82324 14.6426 8.82324 14.6431C8.82324 14.6436 8.82324 14.644 8.82324 14.6445C8.82324 14.645 8.82324 14.6454 8.82324 14.6459C8.82324 14.6464 8.82324 14.6469 8.82324 14.6473C8.82324 14.6478 8.82324 14.6483 8.82324 14.6487C8.82324 14.6492 8.82324 14.6497 8.82324 14.6502C8.82324 14.6506 8.82324 14.6511 8.82324 14.6516C8.82324 14.6521 8.82324 14.6525 8.82324 14.653C8.82324 14.6535 8.82324 14.6539 8.82324 14.6544C8.82324 14.6549 8.82324 14.6554 8.82324 14.6558C8.82324 14.6563 8.82324 14.6568 8.82324 14.6573C8.82324 14.6577 8.82324 14.6582 8.82324 14.6587C8.82324 14.6592 8.82324 14.6596 8.82324 14.6601C8.82324 14.6606 8.82324 14.6611 8.82324 14.6615C8.82324 14.662 8.82324 14.6625 8.82324 14.663C8.82324 14.6634 8.82324 14.6639 8.82324 14.6644C8.82324 14.6649 8.82324 14.6653 8.82324 14.6658C8.82324 14.6663 8.82324 14.6668 8.82324 14.6672C8.82324 14.6677 8.82324 14.6682 8.82324 14.6687C8.82324 14.6691 8.82324 14.6696 8.82324 14.6701C8.82324 14.6706 8.82324 14.671 8.82324 14.6715C8.82324 14.672 8.82324 14.6725 8.82324 14.6729C8.82324 14.6734 8.82324 14.6739 8.82324 14.6744C8.82324 14.6749 8.82324 14.6753 8.82324 14.6758C8.82324 14.6763 8.82324 14.6768 8.82324 14.6772C8.82324 14.6777 8.82324 14.6782 8.82324 14.6787C8.82324 14.6792 8.82324 14.6796 8.82324 14.6801C8.82324 14.6806 8.82324 14.6811 8.82324 14.6815C8.82324 14.682 8.82324 14.6825 8.82324 14.683C8.82324 14.6835 8.82324 14.6839 8.82324 14.6844C8.82324 14.6849 8.82324 14.6854 8.82324 14.6859C8.82324 14.6863 8.82324 14.6868 8.82324 14.6873C8.82324 14.6878 8.82324 14.6883 8.82324 14.6887C8.82324 14.6892 8.82324 14.6897 8.82324 14.6902C8.82324 14.6907 8.82324 14.6911 8.82324 14.6916C8.82324 14.6921 8.82324 14.6926 8.82324 14.6931C8.82324 14.6935 8.82324 14.694 8.82324 14.6945C8.82324 14.695 8.82324 14.6955 8.82324 14.696C8.82324 14.6964 8.82324 14.6969 8.82324 14.6974C8.82324 14.6979 8.82324 14.6984 8.82324 14.6988C8.82324 14.6993 8.82324 14.6998 8.82324 14.7003C8.82324 14.7008 8.82324 14.7013 8.82324 14.7017C8.82324 14.7022 8.82324 14.7027 8.82324 14.7032C8.82324 14.7037 8.82324 14.7042 8.82324 14.7046C8.82324 14.7051 8.82324 14.7056 8.82324 14.7061C8.82324 14.7066 8.82324 14.7071 8.82324 14.7075C8.82324 14.708 8.82324 14.7085 8.82324 14.709C8.82324 14.7095 8.82324 14.71 8.82324 14.7104C8.82324 14.7109 8.82324 14.7114 8.82324 14.7119C8.82324 14.7124 8.82324 14.7129 8.82324 14.7134C8.82324 14.7138 8.82324 14.7143 8.82324 14.7148C8.82324 14.7153 8.82324 14.7158 8.82324 14.7163C8.82324 14.7168 8.82324 14.7172 8.82324 14.7177C8.82324 14.7182 8.82324 14.7187 8.82324 14.7192C8.82324 14.7197 8.82324 14.7202 8.82324 14.7206C8.82324 14.7211 8.82324 14.7216 8.82324 14.7221C8.82324 14.7226 8.82324 14.7231 8.82324 14.7236C8.82324 14.7241 8.82324 14.7245 8.82324 14.725C8.82324 14.7255 8.82324 14.726 8.82324 14.7265C8.82324 14.727 8.82324 14.7275 8.82324 14.728C8.82324 14.7284 8.82324 14.7289 8.82324 14.7294C8.82324 14.7299 8.82324 14.7304 8.82324 14.7309C8.82324 14.7314 8.82324 14.7319 8.82324 14.7324C8.82324 14.7328 8.82324 14.7333 8.82324 14.7338C8.82324 14.7343 8.82324 14.7348 8.82324 14.7353C8.82324 14.7358 8.82324 14.7363 8.82324 14.7368C8.82324 14.7373 8.82324 14.7377 8.82324 14.7382C8.82324 14.7387 8.82324 14.7392 8.82324 14.7397C8.82324 14.7402 8.82324 14.7407 8.82324 14.7412C8.82324 14.7417 8.82324 14.7422 8.82324 14.7427C8.82324 14.7431 8.82324 14.7436 8.82324 14.7441C8.82324 14.7446 8.82324 14.7451 8.82324 14.7456C8.82324 14.7461 8.82324 14.7466 8.82324 14.7471C8.82324 14.7476 8.82324 14.7481 8.82324 14.7486C8.82324 14.749 8.82324 14.7495 8.82324 14.75C8.82324 14.7505 8.82324 14.751 8.82324 14.7515C8.82324 14.752 8.82324 14.7525 8.82324 14.753C8.82324 14.7535 8.82324 14.754 8.82324 14.7545C8.82324 14.755 8.82324 14.7555 8.82324 14.7559C8.82324 14.7564 8.82324 14.7569 8.82324 14.7574C8.82324 14.7579 8.82324 14.7584 8.82324 14.7589C8.82324 14.7594 8.82324 14.7599 8.82324 14.7604C8.82324 14.7609 8.82324 14.7614 8.82324 14.7619C8.82324 14.7624 8.82324 14.7629 8.82324 14.7634C8.82324 14.7639 8.82324 14.7644 8.82324 14.7649C8.82324 14.7654 8.82324 14.7658 8.82324 14.7663C8.82324 14.7668 8.82324 14.7673 8.82324 14.7678C8.82324 14.7683 8.82324 14.7688 8.82324 14.7693C8.82324 14.7698 8.82324 14.7703 8.82324 14.7708C8.82324 14.7713 8.82324 14.7718 8.82324 14.7723C8.82324 14.7728 8.82324 14.7733 8.82324 14.7738C8.82324 14.7743 8.82324 14.7748 8.82324 14.7753C8.82324 14.7758 8.82324 14.7763 8.82324 14.7768C8.82324 14.7773 8.82324 14.7778 8.82324 14.7783C8.82324 14.7788 8.82324 14.7793 8.82324 14.7798C8.82324 14.7803 8.82324 14.7808 8.82324 14.7813C8.82324 14.7818 8.82324 14.7823 8.82324 14.7828C8.82324 14.7833 8.82324 14.7838 8.82324 14.7843C8.82324 14.7848 8.82324 14.7853 8.82324 14.7858C8.82324 14.7863 8.82324 14.7868 8.82324 14.7873C8.82324 14.7878 8.82324 14.7883 8.82324 14.7888C8.82324 14.7893 8.82324 14.7898 8.82324 14.7903C8.82324 14.7908 8.82324 14.7913 8.82324 14.7918C8.82324 14.7923 8.82324 14.7928 8.82324 14.7933C8.82324 14.7938 8.82324 14.7943 8.82324 14.7948C8.82324 14.7953 8.82324 14.7958 8.82324 14.7963C8.82324 14.7968 8.82324 14.7973 8.82324 14.7978C8.82324 14.7983 8.82324 14.7988 8.82324 14.7993C8.82324 14.7998 8.82324 14.8003 8.82324 14.8008C8.82324 14.8013 8.82324 14.8018 8.82324 14.8023C8.82324 14.8028 8.82324 14.8033 8.82324 14.8038C8.82324 14.8043 8.82324 14.8048 8.82324 14.8053C8.82324 14.8058 8.82324 14.8063 8.82324 14.8068C8.82324 14.8073 8.82324 14.8078 8.82324 14.8083C8.82324 14.8088 8.82324 14.8094 8.82324 14.8099C8.82324 14.8104 8.82324 14.8109 8.82324 14.8114C8.82324 14.8119 8.82324 14.8124 8.82324 14.8129C8.82324 14.8134 8.82324 14.8139 8.82324 14.8144C8.82324 14.8149 8.82324 14.8154 8.82324 14.8159C8.82324 14.8164 8.82324 14.8169 8.82324 14.8174C8.82324 14.8179 8.82324 14.8184 8.82324 14.819C8.82324 14.8195 8.82324 14.82 8.82324 14.8205C8.82324 14.821 8.82324 14.8215 8.82324 14.822C8.82324 14.8225 8.82324 14.823 8.82324 14.8235C8.82324 14.824 8.82324 14.8245 8.82324 14.825C8.82324 14.8255 8.82324 14.8261 8.82324 14.8266C8.82324 14.8271 8.82324 14.8276 8.82324 14.8281C8.82324 14.8286 8.82324 14.8291 8.82324 14.8296C8.82324 14.8301 8.82324 14.8306 8.82324 14.8311C8.82324 14.8316 8.82324 14.8322 8.82324 14.8327C8.82324 14.8332 8.82324 14.8337 8.82324 14.8342C8.82324 14.8347 8.82324 14.8352 8.82324 14.8357C8.82324 14.8362 8.82324 14.8367 8.82324 14.8372C8.82324 14.8378 8.82324 14.8383 8.82324 14.8388C8.82324 14.8393 8.82324 14.8398 8.82324 14.8403C8.82324 14.8408 8.82324 14.8413 8.82324 14.8418C8.82324 14.8423 8.82324 14.8429 8.82324 14.8434C8.82324 14.8439 8.82324 14.8444 8.82324 14.8449C8.82324 14.8454 8.82324 14.8459 8.82324 14.8464C8.82324 14.8469 8.82324 14.8475 8.82324 14.848C8.82324 14.8485 8.82324 14.849 8.82324 14.8495C8.82324 14.85 8.82324 14.8505 8.82324 14.851C8.82324 14.8516 8.82324 14.8521 8.82324 14.8526C8.82324 14.8531 8.82324 14.8536 8.82324 14.8541C8.82324 14.8546 8.82324 14.8551 8.82324 14.8557C8.82324 14.8562 8.82324 14.8567 8.82324 14.8572C8.82324 14.8577 8.82324 14.8582 8.82324 14.8587C8.82324 14.8593 8.82324 14.8598 8.82324 14.8603C8.82324 14.8608 8.82324 14.8613 8.82324 14.8618C8.82324 14.8623 8.82324 14.8629 8.82324 14.8634C8.82324 14.8639 8.82324 14.8644 8.82324 14.8649C8.82324 14.8654 8.82324 14.8659 8.82324 14.8665C8.82324 14.867 8.82324 14.8675 8.82324 14.868C8.82324 14.8685 8.82324 14.869 8.82324 14.8696C8.82324 14.8701 8.82324 14.8706 8.82324 14.8711C8.82324 14.8716 8.82324 14.8721 8.82324 14.8727C8.82324 14.8732 8.82324 14.8737 8.82324 14.8742C8.82324 14.8747 8.82324 14.8752 8.82324 14.8758C8.82324 14.8763 8.82324 14.8768 8.82324 14.8773C8.82324 14.8778 8.82324 14.8783 8.82324 14.8789C8.82324 14.8794 8.82324 14.8799 8.82324 14.8804C8.82324 14.8809 8.82324 14.8814 8.82324 14.882C8.82324 14.8825 8.82324 14.883 8.82324 14.8835C8.82324 14.884 8.82324 14.8846 8.82324 14.8851C8.82324 14.8856 8.82324 14.8861 8.82324 14.8866C8.82324 14.8872 8.82324 14.8877 8.82324 14.8882C8.82324 14.8887 8.82324 14.8892 8.82324 14.8898C8.82324 14.8903 8.82324 14.8908 8.82324 14.8913C8.82324 14.8918 8.82324 14.8924 8.82324 14.8929C8.82324 14.8934 8.82324 14.8939 8.82324 14.8944C8.82324 14.895 8.82324 14.8955 8.82324 14.896C8.82324 14.8965 8.82324 14.897 8.82324 14.8976C8.82324 14.8981 8.82324 14.8986 8.82324 14.8991C8.82324 14.8996 8.82324 14.9002 8.82324 14.9007C8.82324 14.9012 8.82324 14.9017 8.82324 14.9023C8.82324 14.9028 8.82324 14.9033 8.82324 14.9038C8.82324 14.9043 8.82324 14.9049 8.82324 14.9054C8.82324 14.9059 8.82324 14.9064 8.82324 14.907C8.82324 14.9075 8.82324 14.908 8.82324 14.9085C8.82324 14.9091 8.82324 14.9096 8.82324 14.9101C8.82324 14.9106 8.82324 14.9111 8.82324 14.9117C8.82324 14.9122 8.82324 14.9127 8.82324 14.9132C8.82324 14.9138 8.82324 14.9143 8.82324 14.9148C8.82324 14.9153 8.82324 14.9159 8.82324 14.9164C8.82324 14.9169 8.82324 14.9174 8.82324 14.918H10.8232ZM10.823 14.2508C10.8275 14.0562 10.832 13.8803 10.8365 13.7229L8.83732 13.6658C8.8327 13.8274 8.8281 14.0069 8.82351 14.2043L10.823 14.2508ZM10.8354 13.7498C10.844 13.5944 10.8548 13.4366 10.8678 13.2761L8.87436 13.1145C8.86003 13.2913 8.84805 13.4661 8.83845 13.6389L10.8354 13.7498ZM9.15285 12.4995C9.02844 12.6279 8.91969 12.7304 8.82614 12.81L10.1231 14.3325C10.2756 14.2026 10.4312 14.0543 10.5893 13.8911L9.15285 12.4995ZM8.84294 12.7961C8.71776 12.8981 8.5634 13.0248 8.38022 13.1759L9.65298 14.7186C9.83439 14.569 9.98537 14.445 10.1063 14.3465L8.84294 12.7961ZM8.39077 13.1673L7.24917 14.0833L8.50083 15.6432L9.64244 14.7272L8.39077 13.1673ZM8.66736 14.2532L8.07264 13.4808L6.48791 14.7009L7.08264 15.4733L8.66736 14.2532ZM7.89047 14.8831L10.5975 12.7981L9.37711 11.2136L6.67008 13.2986L7.89047 14.8831ZM9.9873 13.0059H10.9307V11.0059H9.9873V13.0059ZM9.93066 12.0059V22H11.9307V12.0059H9.93066ZM20.3506 21.6924L19.8132 20.8491L19.8094 20.8515L20.3506 21.6924ZM16.3652 20.9746L17.1945 20.4158L16.8972 19.9746H16.3652V20.9746ZM16.2832 20.9746V19.9746H15.2033L15.2861 21.0513L16.2832 20.9746ZM16.3311 21.6172L15.3337 21.6897L15.3343 21.6987L15.3352 21.7077L16.3311 21.6172ZM16.3652 25.3496V26.3496H17.3652V25.3496H16.3652ZM15.2236 25.3496H14.2236V26.3496H15.2236V25.3496ZM15.2236 14.5078V13.5078H14.2236V14.5078H15.2236ZM16.1602 14.5078L17.1511 14.3732L17.0335 13.5078H16.1602V14.5078ZM16.3105 15.6152L15.3196 15.7498L15.4372 16.6152H16.3105V15.6152ZM16.3652 15.6152V16.6152H16.9125L17.2075 16.1543L16.3652 15.6152ZM16.8984 14.9932L17.5639 15.7397L17.5727 15.7316L16.8984 14.9932ZM17.6641 14.542L18.0058 15.4818L18.0137 15.4789L17.6641 14.542ZM17.2881 15.6289L16.7559 14.7823L16.7504 14.7857L17.2881 15.6289ZM16.5977 16.5312L17.5362 16.8765L17.5374 16.873L16.5977 16.5312ZM16.3652 18.0283L15.3653 18.0132L15.3652 18.0207V18.0283H16.3652ZM16.5703 19.8535L15.6158 20.1518L15.6187 20.1608L16.5703 19.8535ZM17.2607 20.8516L16.6795 21.6653L16.685 21.6692L17.2607 20.8516ZM19.7217 20.8174L19.0928 20.0399L19.7217 20.8174ZM20.4121 19.7715L19.4663 19.4467L19.4644 19.4524L20.4121 19.7715ZM20.125 16.1143L19.2873 16.6606L19.2929 16.669L20.125 16.1143ZM18.7441 15.3711C19.4206 15.3711 19.8775 15.5897 20.2233 15.9893L21.7357 14.6806C20.9695 13.7951 19.9362 13.3711 18.7441 13.3711V15.3711ZM20.2233 15.9893C20.5582 16.3764 20.8135 17.0641 20.8135 18.2334H22.8135C22.8135 16.8232 22.5128 15.5787 21.7357 14.6806L20.2233 15.9893ZM20.8135 18.2334C20.8135 18.9923 20.699 19.5607 20.5157 19.9764L22.3457 20.7833C22.6728 20.0415 22.8135 19.179 22.8135 18.2334H20.8135ZM20.5157 19.9764C20.328 20.4019 20.0879 20.674 19.8132 20.8491L20.888 22.5357C21.543 22.1183 22.0229 21.5154 22.3457 20.7833L20.5157 19.9764ZM19.8094 20.8515C19.5335 21.029 19.1831 21.1367 18.7168 21.1367V23.1367C19.5083 23.1367 20.2471 22.9482 20.8918 22.5333L19.8094 20.8515ZM18.7168 21.1367C18.406 21.1367 18.1727 21.0954 18 21.0352L17.3418 22.9238C17.7707 23.0732 18.2346 23.1367 18.7168 23.1367V21.1367ZM18 21.0352C17.7959 20.9641 17.647 20.8774 17.537 20.7861L16.2599 22.3252C16.5782 22.5894 16.9444 22.7853 17.3418 22.9238L18 21.0352ZM17.537 20.7861C17.3888 20.6631 17.2775 20.5389 17.1945 20.4158L15.536 21.5335C15.7355 21.8296 15.9797 22.0928 16.2599 22.3252L17.537 20.7861ZM16.3652 19.9746H16.2832V21.9746H16.3652V19.9746ZM15.2861 21.0513C15.2997 21.2272 15.3155 21.4399 15.3337 21.6897L17.3284 21.5447C17.3101 21.2931 17.2941 21.0775 17.2803 20.8979L15.2861 21.0513ZM15.3352 21.7077C15.3561 21.9378 15.3652 22.1251 15.3652 22.2734H17.3652C17.3652 22.0481 17.3516 21.7978 17.3269 21.5267L15.3352 21.7077ZM15.3652 22.2734V25.3496H17.3652V22.2734H15.3652ZM16.3652 24.3496H15.2236V26.3496H16.3652V24.3496ZM16.2236 25.3496V14.5078H14.2236V25.3496H16.2236ZM15.2236 15.5078H16.1602V13.5078H15.2236V15.5078ZM15.1693 14.6424L15.3196 15.7498L17.3015 15.4807L17.1511 14.3732L15.1693 14.6424ZM16.3105 16.6152H16.3652V14.6152H16.3105V16.6152ZM17.2075 16.1543C17.3023 16.0062 17.4197 15.8681 17.5638 15.7397L16.2331 14.2467C15.9579 14.4919 15.7199 14.7685 15.523 15.0762L17.2075 16.1543ZM17.5727 15.7316C17.6742 15.639 17.8124 15.5521 18.0058 15.4818L17.3223 13.6022C16.9142 13.7506 16.542 13.9645 16.2242 14.2547L17.5727 15.7316ZM18.0137 15.4789C18.1813 15.4163 18.4177 15.3711 18.7441 15.3711V13.3711C18.2411 13.3711 17.7575 13.4398 17.3145 13.6051L18.0137 15.4789ZM18.5459 14.3281C17.9067 14.3281 17.2839 14.4504 16.7559 14.7823L17.8203 16.4755C17.9303 16.4064 18.146 16.3281 18.5459 16.3281V14.3281ZM16.7504 14.7857C16.2242 15.1213 15.8676 15.6128 15.6579 16.1895L17.5374 16.873C17.6194 16.6476 17.723 16.5376 17.8258 16.4721L16.7504 14.7857ZM15.6591 16.186C15.4617 16.7228 15.3755 17.3427 15.3653 18.0132L17.3651 18.0435C17.3732 17.5108 17.4419 17.1327 17.5362 16.8765L15.6591 16.186ZM15.3652 18.0283V18.2471H17.3652V18.0283H15.3652ZM15.3652 18.2471C15.3652 18.946 15.4399 19.5888 15.6158 20.1518L17.5248 19.5552C17.4273 19.2433 17.3652 18.815 17.3652 18.2471H15.3652ZM15.6187 20.1608C15.8141 20.766 16.1571 21.2921 16.6795 21.6653L17.842 20.0378C17.7264 19.9553 17.6091 19.816 17.5219 19.5462L15.6187 20.1608ZM16.685 21.6692C17.2292 22.0524 17.8857 22.1934 18.5596 22.1934V20.1934C18.1489 20.1934 17.9394 20.1064 17.8365 20.034L16.685 21.6692ZM18.5596 22.1934C19.2135 22.1934 19.834 22.0127 20.3505 21.5949L19.0928 20.0399C18.9896 20.1234 18.8354 20.1934 18.5596 20.1934V22.1934ZM20.3505 21.5949C20.8332 21.2045 21.16 20.6839 21.3598 20.0906L19.4644 19.4524C19.3634 19.7523 19.2299 19.929 19.0928 20.0399L20.3505 21.5949ZM21.3579 20.0963C21.5557 19.5203 21.6445 18.8898 21.6445 18.2197H19.6445C19.6445 18.7163 19.5784 19.1203 19.4663 19.4467L21.3579 20.0963ZM21.6445 18.2197C21.6445 17.2169 21.4497 16.2985 20.9571 15.5596L19.2929 16.669C19.493 16.9691 19.6445 17.4543 19.6445 18.2197H21.6445ZM20.9626 15.568C20.4085 14.7184 19.5407 14.3281 18.5459 14.3281V16.3281C18.9729 16.3281 19.1579 16.4619 19.2874 16.6605L20.9626 15.568ZM23.8301 16.0732L22.9456 15.6066L22.9442 15.6092L23.8301 16.0732ZM25.0879 14.7881L25.5502 15.6748L25.0879 14.7881ZM27.9863 14.4873L27.768 15.4632L27.7754 15.4648L27.7829 15.4664L27.9863 14.4873ZM28.8477 14.7676L29.7886 15.1061L30.0868 14.2772L29.3021 13.8768L28.8477 14.7676ZM28.5059 15.7178L28.1345 16.6463L29.0962 17.031L29.4468 16.0563L28.5059 15.7178ZM27.7129 15.4717L27.4739 16.4427L27.4773 16.4435L27.7129 15.4717ZM25.5801 15.6973L25.0382 14.8568L25.0331 14.8601L25.5801 15.6973ZM24.8076 16.6816L23.8791 16.3102L23.8758 16.3187L24.8076 16.6816ZM24.8008 19.833L23.8669 20.1907L23.8703 20.1993L24.8008 19.833ZM25.5459 20.8174L24.9755 21.6388L24.982 21.6433L24.9886 21.6477L25.5459 20.8174ZM27.8633 21.0293L28.1123 21.9979L28.1252 21.9944L27.8633 21.0293ZM28.7314 20.7285H29.7314V19.198L28.3298 19.8127L28.7314 20.7285ZM28.7314 21.7402L29.1851 22.6314L29.7314 22.3533V21.7402H28.7314ZM27.8906 22.0342L27.6752 21.0577L27.6722 21.0583L27.8906 22.0342ZM26.7969 21.1367C26.2628 21.1367 25.8359 21.0277 25.4877 20.8398L24.5377 22.5997C25.2195 22.9678 25.982 23.1367 26.7969 23.1367V21.1367ZM25.4877 20.8398C25.1691 20.6677 24.9063 20.4024 24.7026 19.9982L22.9166 20.8983C23.2871 21.6334 23.8264 22.2157 24.5377 22.5997L25.4877 20.8398ZM24.7026 19.9982C24.5063 19.6088 24.3789 19.0576 24.3789 18.2949H22.3789C22.3789 19.264 22.5386 20.1483 22.9166 20.8983L24.7026 19.9982ZM24.3789 18.2949C24.3789 17.4888 24.514 16.9227 24.7159 16.5372L22.9442 15.6092C22.5446 16.3722 22.3789 17.2872 22.3789 18.2949H24.3789ZM24.7145 16.5398C24.9339 16.1241 25.2131 15.8506 25.5502 15.6748L24.6256 13.9014C23.8963 14.2816 23.337 14.8648 22.9456 15.6066L24.7145 16.5398ZM25.5502 15.6748C25.9231 15.4804 26.3672 15.3711 26.9062 15.3711V13.3711C26.0873 13.3711 25.3191 13.5398 24.6256 13.9014L25.5502 15.6748ZM26.9062 15.3711C27.2104 15.3711 27.497 15.4026 27.768 15.4632L28.2046 13.5114C27.7829 13.4171 27.3495 13.3711 26.9062 13.3711V15.3711ZM27.7829 15.4664C28.0806 15.5283 28.2752 15.5981 28.3932 15.6583L29.3021 13.8768C28.9735 13.7092 28.5939 13.5922 28.1898 13.5082L27.7829 15.4664ZM27.9067 14.4291L27.5649 15.3793L29.4468 16.0563L29.7886 15.1061L27.9067 14.4291ZM28.8773 14.7893C28.5956 14.6766 28.2842 14.5812 27.9485 14.4998L27.4773 16.4435C27.7432 16.508 27.9604 16.5766 28.1345 16.6463L28.8773 14.7893ZM27.9519 14.5007C27.5907 14.4117 27.2318 14.3623 26.8789 14.3623V16.3623C27.0456 16.3623 27.2427 16.3858 27.4739 16.4427L27.9519 14.5007ZM26.8789 14.3623C26.2171 14.3623 25.5834 14.5053 25.0382 14.8568L26.122 16.5377C26.2694 16.4427 26.5017 16.3623 26.8789 16.3623V14.3623ZM25.0331 14.8601C24.4956 15.2113 24.1174 15.7146 23.8791 16.3102L25.7361 17.053C25.8442 16.7828 25.9809 16.6299 26.127 16.5344L25.0331 14.8601ZM23.8758 16.3187C23.649 16.9011 23.5547 17.5658 23.5547 18.2812H25.5547C25.5547 17.7298 25.629 17.3281 25.7394 17.0446L23.8758 16.3187ZM23.5547 18.2812C23.5547 18.9725 23.6476 19.6179 23.8669 20.1907L25.7346 19.4754C25.6259 19.1913 25.5547 18.8022 25.5547 18.2812H23.5547ZM23.8703 20.1993C24.1 20.7828 24.4613 21.2817 24.9755 21.6388L26.1163 19.996C25.9743 19.8974 25.8388 19.74 25.7313 19.4667L23.8703 20.1993ZM24.9886 21.6477C25.5218 22.0056 26.1426 22.1523 26.79 22.1523V20.1523C26.444 20.1523 26.2354 20.0758 26.1032 19.9871L24.9886 21.6477ZM26.79 22.1523C27.2541 22.1523 27.6974 22.1045 28.1123 21.9978L27.6142 20.0608C27.3911 20.1182 27.119 20.1523 26.79 20.1523V22.1523ZM28.1252 21.9944C28.4844 21.8969 28.8214 21.781 29.1331 21.6443L28.3298 19.8127C28.122 19.9039 27.8802 19.9885 27.6013 20.0642L28.1252 21.9944ZM27.7314 20.7285V21.7402H29.7314V20.7285H27.7314ZM28.2778 20.8491C28.1115 20.9337 27.9128 21.0052 27.6752 21.0577L28.106 23.0107C28.4883 22.9264 28.8501 22.802 29.1851 22.6314L28.2778 20.8491ZM27.6722 21.0583C27.4587 21.1061 27.1712 21.1367 26.7969 21.1367V23.1367C27.2702 23.1367 27.7119 23.0989 28.1091 23.01L27.6722 21.0583ZM34.9932 21.1592L34.1878 20.5664L34.1864 20.5683L34.9932 21.1592ZM33.9678 21.8906L33.623 20.952L33.6198 20.9531L33.9678 21.8906ZM30.0166 21.665H29.0166V22.2701L29.5526 22.5509L30.0166 21.665ZM30.0166 20.6191L30.4585 19.7221L29.0166 19.0119V20.6191H30.0166ZM33.8174 20.8994L33.2337 20.0874L33.8174 20.8994ZM34.0771 19.5049L33.2634 20.0861L33.2729 20.0994L33.2828 20.1123L34.0771 19.5049ZM33.4961 19.0469L33.0141 19.9232L33.0255 19.9292L33.4961 19.0469ZM32.3613 18.5547L32.0053 19.4892L32.016 19.4932L32.3613 18.5547ZM31.1172 18.0146L30.6514 18.8996L30.6584 18.9032L30.6653 18.9067L31.1172 18.0146ZM30.3105 17.3516L29.4987 17.9355L29.5055 17.9448L30.3105 17.3516ZM30.7959 14.8838L31.3472 15.7181L31.3489 15.717L30.7959 14.8838ZM34.084 14.5078L33.8575 15.4819L33.8706 15.4848L34.084 14.5078ZM35.1914 14.8633L36.113 15.2513L36.4949 14.3443L35.5941 13.948L35.1914 14.8633ZM34.8086 15.7725L34.4163 16.6923L35.3404 17.0864L35.7302 16.1605L34.8086 15.7725ZM31.5342 15.5605L31.0116 14.7079L31.0054 14.7118L31.5342 15.5605ZM31.3086 16.8457L30.5461 17.4927L30.5517 17.4993L30.5574 17.5058L31.3086 16.8457ZM33.0723 17.7344L32.7181 18.6696L32.7261 18.6726L33.0723 17.7344ZM34.2891 18.2744L33.8094 19.1519L33.8185 19.1568L34.2891 18.2744ZM35.0752 18.9443L34.252 19.5121L34.2576 19.5202L34.2634 19.5283L35.0752 18.9443ZM34.3555 19.9492C34.3555 20.2529 34.2819 20.4386 34.1878 20.5664L35.7985 21.752C36.1875 21.2235 36.3555 20.6026 36.3555 19.9492H34.3555ZM34.1864 20.5683C34.0861 20.7053 33.9198 20.8429 33.623 20.952L34.3126 22.8293C34.909 22.6102 35.4263 22.2602 35.7999 21.7501L34.1864 20.5683ZM33.6198 20.9531C33.3173 21.0654 32.9126 21.1367 32.3818 21.1367V23.1367C33.0816 23.1367 33.7342 23.044 34.3157 22.8281L33.6198 20.9531ZM32.3818 21.1367C31.9061 21.1367 31.5263 21.0991 31.231 21.0359L30.812 22.9915C31.2823 23.0923 31.8094 23.1367 32.3818 23.1367V21.1367ZM31.231 21.0359C30.9191 20.969 30.6728 20.8799 30.4806 20.7792L29.5526 22.5509C29.9346 22.751 30.3583 22.8943 30.812 22.9915L31.231 21.0359ZM31.0166 21.665V20.6191H29.0166V21.665H31.0166ZM29.5748 21.5162C29.9452 21.6987 30.3671 21.8548 30.8315 21.9896L31.3892 20.069C31.0059 19.9577 30.6987 19.8404 30.4585 19.7221L29.5748 21.5162ZM30.8315 21.9896C31.3461 22.139 31.8729 22.2139 32.4092 22.2139V20.2139C32.0613 20.2139 31.7222 20.1656 31.3892 20.069L30.8315 21.9896ZM32.4092 22.2139C33.1188 22.2139 33.8498 22.1076 34.401 21.7114L33.2337 20.0874C33.2016 20.1105 32.9938 20.2139 32.4092 20.2139V22.2139ZM34.401 21.7114C34.9548 21.3134 35.2549 20.726 35.2549 20.0449H33.2549C33.2549 20.0672 33.2526 20.0781 33.2522 20.0803C33.2518 20.0819 33.2525 20.0786 33.2554 20.0728C33.2583 20.0671 33.2608 20.0644 33.2599 20.0654C33.2586 20.0668 33.2514 20.0747 33.2337 20.0874L34.401 21.7114ZM35.2549 20.0449C35.2549 19.6324 35.1305 19.2362 34.8715 18.8974L33.2828 20.1123C33.2761 20.1036 33.267 20.0881 33.2606 20.0687C33.2544 20.0499 33.2549 20.0399 33.2549 20.0449H35.2549ZM34.8909 18.9236C34.6501 18.5865 34.3053 18.3451 33.9667 18.1645L33.0255 19.9292C33.1226 19.981 33.1871 20.0243 33.2274 20.0561C33.2682 20.0883 33.2734 20.1001 33.2634 20.0861L34.8909 18.9236ZM33.978 18.1707C33.6417 17.9857 33.2107 17.8017 32.7066 17.6162L32.016 19.4932C32.4781 19.6632 32.8036 19.8073 33.0142 19.9231L33.978 18.1707ZM32.7173 17.6202C32.2623 17.4469 31.8811 17.2806 31.569 17.1226L30.6653 18.9067C31.0551 19.1042 31.5033 19.2979 32.0053 19.4892L32.7173 17.6202ZM31.5829 17.1297C31.3422 17.003 31.2003 16.8734 31.1156 16.7584L29.5055 17.9448C29.8036 18.3493 30.1994 18.6617 30.6514 18.8996L31.5829 17.1297ZM31.1224 16.7676C31.0896 16.7222 31.0303 16.6069 31.0303 16.3398H29.0303C29.0303 16.9022 29.1578 17.4614 29.4987 17.9355L31.1224 16.7676ZM31.0303 16.3398C31.0303 16.0279 31.1287 15.8625 31.3472 15.7181L30.2446 14.0495C29.4423 14.5796 29.0303 15.3849 29.0303 16.3398H31.0303ZM31.3489 15.717C31.6518 15.5159 32.115 15.3711 32.8193 15.3711V13.3711C31.8557 13.3711 30.9699 13.5681 30.2429 14.0506L31.3489 15.717ZM32.8193 15.3711C33.2033 15.3711 33.5481 15.4099 33.8575 15.4818L34.3105 13.5338C33.836 13.4235 33.3377 13.3711 32.8193 13.3711V15.3711ZM33.8706 15.4848C34.2076 15.5584 34.5128 15.6572 34.7887 15.7786L35.5941 13.948C35.1864 13.7686 34.7533 13.6304 34.2973 13.5308L33.8706 15.4848ZM34.2698 14.4752L33.887 15.3844L35.7302 16.1605L36.113 15.2513L34.2698 14.4752ZM35.2009 14.8526C34.842 14.6996 34.4642 14.5723 34.0688 14.4696L33.566 16.4054C33.8724 16.485 34.1554 16.581 34.4163 16.6923L35.2009 14.8526ZM34.0688 14.4696C33.6353 14.357 33.1931 14.3008 32.7441 14.3008V16.3008C33.0244 16.3008 33.2976 16.3357 33.566 16.4054L34.0688 14.4696ZM32.7441 14.3008C32.1333 14.3008 31.5179 14.3976 31.0116 14.7079L32.0567 16.4131C32.1156 16.3771 32.3068 16.3008 32.7441 16.3008V14.3008ZM31.0054 14.7118C30.4656 15.0481 30.1172 15.5901 30.1172 16.2715H32.1172C32.1172 16.2738 32.1169 16.2871 32.1114 16.3081C32.1059 16.3296 32.0966 16.3525 32.084 16.3741C32.0573 16.4197 32.035 16.4267 32.0629 16.4093L31.0054 14.7118ZM30.1172 16.2715C30.1172 16.6965 30.2387 17.1304 30.5461 17.4927L32.0711 16.1987C32.0806 16.2099 32.0896 16.2227 32.0974 16.2366C32.1051 16.2505 32.1104 16.263 32.1137 16.2731C32.1205 16.2936 32.1172 16.2962 32.1172 16.2715H30.1172ZM30.5574 17.5058C30.82 17.8046 31.1706 18.0174 31.5194 18.1779L32.3556 16.3612C32.2495 16.3123 32.1745 16.2693 32.1238 16.2352C32.0724 16.2005 32.0567 16.1821 32.0598 16.1856L30.5574 17.5058ZM31.5194 18.1779C31.836 18.3237 32.2381 18.4878 32.7182 18.6696L33.4264 16.7992C32.9677 16.6255 32.6132 16.4797 32.3556 16.3612L31.5194 18.1779ZM32.7261 18.6726C33.1618 18.8333 33.5206 18.994 33.8094 19.1519L34.7687 17.397C34.3739 17.1811 33.9215 16.9818 33.4184 16.7962L32.7261 18.6726ZM33.8185 19.1568C34.0481 19.2792 34.1773 19.4038 34.252 19.5121L35.8984 18.3766C35.6085 17.9562 35.2136 17.6342 34.7597 17.3921L33.8185 19.1568ZM34.2634 19.5283C34.2974 19.5755 34.3555 19.6895 34.3555 19.9492H36.3555C36.3555 19.3887 36.2267 18.8327 35.887 18.3604L34.2634 19.5283Z" fill="#D1D1D1" mask="url(#path-2-inside-1_8007_26196)"/>
<line x1="42.5" y1="6.5" x2="42.5" y2="26.5" stroke="#D1D1D1"/>
<g clip-path="url(#clip0_8007_26196)">
<path d="M54.936 14.716C54.936 15.164 54.828 15.584 54.612 15.976C54.404 16.368 54.072 16.684 53.616 16.924C53.168 17.164 52.6 17.284 51.912 17.284H50.508V20.5H48.828V12.124H51.912C52.56 12.124 53.112 12.236 53.568 12.46C54.024 12.684 54.364 12.992 54.588 13.384C54.82 13.776 54.936 14.22 54.936 14.716ZM51.84 15.928C52.304 15.928 52.648 15.824 52.872 15.616C53.096 15.4 53.208 15.1 53.208 14.716C53.208 13.9 52.752 13.492 51.84 13.492H50.508V15.928H51.84ZM55.6968 17.176C55.6968 16.488 55.8368 15.888 56.1168 15.376C56.3968 14.856 56.7848 14.456 57.2808 14.176C57.7768 13.888 58.3448 13.744 58.9848 13.744C59.8088 13.744 60.4888 13.952 61.0248 14.368C61.5688 14.776 61.9328 15.352 62.1168 16.096H60.3048C60.2088 15.808 60.0448 15.584 59.8128 15.424C59.5888 15.256 59.3088 15.172 58.9728 15.172C58.4928 15.172 58.1128 15.348 57.8328 15.7C57.5528 16.044 57.4128 16.536 57.4128 17.176C57.4128 17.808 57.5528 18.3 57.8328 18.652C58.1128 18.996 58.4928 19.168 58.9728 19.168C59.6528 19.168 60.0968 18.864 60.3048 18.256H62.1168C61.9328 18.976 61.5688 19.548 61.0248 19.972C60.4808 20.396 59.8008 20.608 58.9848 20.608C58.3448 20.608 57.7768 20.468 57.2808 20.188C56.7848 19.9 56.3968 19.5 56.1168 18.988C55.8368 18.468 55.6968 17.864 55.6968 17.176ZM65.8915 20.608C65.3475 20.608 64.8595 20.512 64.4275 20.32C63.9955 20.12 63.6515 19.852 63.3955 19.516C63.1475 19.18 63.0115 18.808 62.9875 18.4H64.6795C64.7115 18.656 64.8355 18.868 65.0515 19.036C65.2755 19.204 65.5515 19.288 65.8795 19.288C66.1995 19.288 66.4475 19.224 66.6235 19.096C66.8075 18.968 66.8995 18.804 66.8995 18.604C66.8995 18.388 66.7875 18.228 66.5635 18.124C66.3475 18.012 65.9995 17.892 65.5195 17.764C65.0235 17.644 64.6155 17.52 64.2955 17.392C63.9835 17.264 63.7115 17.068 63.4795 16.804C63.2555 16.54 63.1435 16.184 63.1435 15.736C63.1435 15.368 63.2475 15.032 63.4555 14.728C63.6715 14.424 63.9755 14.184 64.3675 14.008C64.7675 13.832 65.2355 13.744 65.7715 13.744C66.5635 13.744 67.1955 13.944 67.6675 14.344C68.1395 14.736 68.3995 15.268 68.4475 15.94H66.8395C66.8155 15.676 66.7035 15.468 66.5035 15.316C66.3115 15.156 66.0515 15.076 65.7235 15.076C65.4195 15.076 65.1835 15.132 65.0155 15.244C64.8555 15.356 64.7755 15.512 64.7755 15.712C64.7755 15.936 64.8875 16.108 65.1115 16.228C65.3355 16.34 65.6835 16.456 66.1555 16.576C66.6355 16.696 67.0315 16.82 67.3435 16.948C67.6555 17.076 67.9235 17.276 68.1475 17.548C68.3795 17.812 68.4995 18.164 68.5075 18.604C68.5075 18.988 68.3995 19.332 68.1835 19.636C67.9755 19.94 67.6715 20.18 67.2715 20.356C66.8795 20.524 66.4195 20.608 65.8915 20.608Z" fill="#151515"/>
<path d="M77.6094 15.4L79.6644 17.455C79.7581 17.5481 79.8848 17.6004 80.0169 17.6004C80.149 17.6004 80.2757 17.5481 80.3694 17.455L82.3694 15.455" stroke="#151515" stroke-width="1.5" stroke-linecap="round" stroke-linejoin="bevel"/>
</g>
<defs>
<clipPath id="clip0_8007_26196">
<rect width="38" height="18" fill="white" transform="translate(48 7.5)"/>
</clipPath>
</defs>
</svg>
